<?xml version="1.0" encoding="utf-8"?>
<!-- Generator: Adobe Illustrator 14.0.0, SVG Export Plug-In  -->
<!DOCTYPE svg PUBLIC "-//W3C//DTD SVG 1.1//EN" "http://www.w3.org/Graphics/SVG/1.1/DTD/svg11.dtd" [
	<!ENTITY ns_flows "http://ns.adobe.com/Flows/1.0/">
]>
<svg version="1.1"
	 xmlns="http://www.w3.org/2000/svg" xmlns:xlink="http://www.w3.org/1999/xlink" xmlns:a="http://ns.adobe.com/AdobeSVGViewerExtensions/3.0/"
	 x="0px" y="0px" width="504px" height="495px" viewBox="0 0 504 495" enable-background="new 0 0 504 495" xml:space="preserve">
<defs>
</defs>
<rect fill="#FFFFFF" width="504.2" height="495.1"/>
<linearGradient id="SVGID_1_" gradientUnits="userSpaceOnUse" x1="521.0029" y1="208.0317" x2="125.003" y2="-187.9677" gradientTransform="matrix(1 0 0 -1 -97.6602 274.04)">
	<stop  offset="0" style="stop-color:#ffffff"/>
	<stop  offset="1" style="stop-color:#999999"/>
	<a:midPointStop  offset="0" style="stop-color:#3FA9F5"/>
	<a:midPointStop  offset="0.5" style="stop-color:#3FA9F5"/>
	<a:midPointStop  offset="1" style="stop-color:#FF7BAC"/>
</linearGradient>
<rect x="9.8" y="47.2" fill="url(#SVGID_1_)" stroke="#545454" width="432.1" height="432.6"/>
<line fill="none" stroke="#333333" x1="226.9" y1="47.2" x2="226.9" y2="479.8"/>
<line fill="none" stroke="#333333" x1="9.8" y1="263.5" x2="441.9" y2="263.5"/>
<path d="M296.2,276.8v-9.8h0l-3.1,2.5v-1.3l3.1-2.5h1.2v11.1H296.2z"/>
<path d="M236.5,201.2v-9.8h0l-3.1,2.5v-1.3l3.1-2.5h1.2v11.1H236.5z"/>
<path d="M236.4,118.6c1.1,0,1.9,0.3,2.5,0.8s0.9,1.3,0.9,2.3c0,1-0.4,2-1.1,3c-0.7,1-2,2.3-4,4v0h5.1v1H233v-1
	c2.1-1.8,3.6-3.1,4.3-4.1c0.8-1,1.1-1.9,1.1-2.8c0-0.7-0.2-1.2-0.6-1.6c-0.4-0.4-1-0.6-1.7-0.6c-0.9,0-1.9,0.3-3,0.9v-1.2
	C234.2,118.9,235.3,118.6,236.4,118.6z"/>
<path d="M368,265.7c1.1,0,1.9,0.3,2.5,0.8s0.9,1.3,0.9,2.3c0,1-0.4,2-1.1,3c-0.7,1-2,2.3-4,4v0h5.1v1h-6.8v-1
	c2.1-1.8,3.6-3.1,4.3-4.1c0.8-1,1.1-1.9,1.1-2.8c0-0.7-0.2-1.2-0.6-1.6c-0.4-0.4-1-0.6-1.7-0.6c-0.9,0-1.9,0.3-3,0.9v-1.2
	C365.9,266,366.9,265.7,368,265.7z"/>
<path d="M435.1,265.7h6.6v1l-3.6,3.6v0h0.4c1.1,0,1.9,0.3,2.4,0.8c0.6,0.5,0.8,1.3,0.8,2.3c0,1.2-0.3,2-1,2.7
	c-0.7,0.6-1.6,0.9-2.9,0.9c-1,0-1.9-0.2-2.7-0.6v-1.2c0.8,0.5,1.7,0.7,2.7,0.7c0.9,0,1.6-0.2,2-0.7c0.5-0.4,0.7-1.1,0.7-1.9
	c0-0.7-0.2-1.3-0.7-1.6c-0.5-0.4-1.2-0.5-2.3-0.5h-1.1v-0.9l3.6-3.5v0h-5V265.7z"/>
<path d="M233.1,46.7h6.6v1l-3.6,3.6v0h0.4c1.1,0,1.9,0.3,2.4,0.8c0.6,0.5,0.8,1.3,0.8,2.3c0,1.2-0.3,2-1,2.7
	c-0.7,0.6-1.6,0.9-2.9,0.9c-1,0-1.9-0.2-2.7-0.6v-1.2c0.8,0.5,1.7,0.7,2.7,0.7c0.9,0,1.5-0.2,2-0.7s0.7-1.1,0.7-1.9
	c0-0.7-0.2-1.3-0.7-1.6c-0.5-0.4-1.2-0.5-2.3-0.5h-1.1v-0.9l3.6-3.5v0h-5V46.7z"/>
<path d="M12.5,273v-0.9h4.6v0.9H12.5z"/>
<path d="M19.7,265.7h6.6v1l-3.6,3.6v0h0.4c1.1,0,1.9,0.3,2.4,0.8c0.6,0.5,0.8,1.3,0.8,2.3c0,1.2-0.3,2-1,2.7
	c-0.7,0.6-1.6,0.9-2.9,0.9c-1,0-1.9-0.2-2.7-0.6v-1.2c0.8,0.5,1.7,0.7,2.7,0.7c0.9,0,1.5-0.2,2-0.7s0.7-1.1,0.7-1.9
	c0-0.7-0.2-1.3-0.7-1.6c-0.5-0.4-1.2-0.5-2.3-0.5h-1.1v-0.9l3.6-3.5v0h-5V265.7z"/>
<path d="M84,273v-0.9h4.6v0.9H84z"/>
<path d="M94.5,265.7c1.1,0,1.9,0.3,2.5,0.8s0.9,1.3,0.9,2.3c0,1-0.4,2-1.1,3c-0.7,1-2,2.3-4,4v0h5.1v1h-6.8v-1
	c2.1-1.8,3.6-3.1,4.3-4.1c0.8-1,1.1-1.9,1.1-2.8c0-0.7-0.2-1.2-0.6-1.6c-0.4-0.4-1-0.6-1.7-0.6c-0.9,0-1.9,0.3-3,0.9v-1.2
	C92.3,266,93.4,265.7,94.5,265.7z"/>
<path d="M156,273v-0.9h4.6v0.9H156z"/>
<path d="M166.7,276.8v-9.8h0l-3.1,2.5v-1.3l3.1-2.5h1.2v11.1H166.7z"/>
<path d="M230.1,327.8v-0.9h4.6v0.9H230.1z"/>
<path d="M240.8,331.7v-9.8h0l-3.1,2.5v-1.3l3.1-2.5h1.2v11.1H240.8z"/>
<path d="M230.1,400.8v-0.9h4.6v0.9H230.1z"/>
<path d="M240.6,393.6c1.1,0,1.9,0.3,2.5,0.8s0.9,1.3,0.9,2.3c0,1-0.4,2-1.1,3c-0.7,1-2,2.3-4,4v0h5.1v1h-6.8v-1
	c2.1-1.8,3.6-3.1,4.3-4.1c0.8-1,1.1-1.9,1.1-2.8c0-0.7-0.2-1.2-0.6-1.6c-0.4-0.4-1-0.6-1.7-0.6c-0.9,0-1.9,0.3-3,0.9v-1.2
	C238.5,393.8,239.5,393.6,240.6,393.6z"/>
<path d="M230.1,471.8v-0.9h4.6v0.9H230.1z"/>
<path d="M237.3,464.6h6.6v1l-3.6,3.6v0h0.4c1.1,0,1.9,0.3,2.4,0.8c0.6,0.5,0.8,1.3,0.8,2.3c0,1.2-0.3,2-1,2.7
	c-0.7,0.6-1.6,0.9-2.9,0.9c-1,0-1.9-0.2-2.7-0.6v-1.2c0.8,0.5,1.7,0.7,2.7,0.7c0.9,0,1.5-0.2,2-0.7s0.7-1.1,0.7-1.9
	c0-0.7-0.2-1.3-0.7-1.6c-0.5-0.4-1.2-0.5-2.3-0.5h-1.1v-0.9l3.6-3.5v0h-5V464.6z"/>
<path d="M45.8,122.8h7.5v-3.7H55v3.7h7.9v3.7c0,3.6-1.1,6.4-3.3,8.4c-2.2,2-5.5,3.2-9.7,3.5l-0.2-1.6c3.8-0.2,6.6-1.2,8.5-3
	s2.9-4.2,2.9-7.3v-2.2H47.5v5.6h-1.7V122.8z"/>
<path d="M83.7,124l1,1.1c-1.5,1.6-3.3,3-5.5,4.2v9.3h-1.6v-8.5c-2.4,1.1-4.9,1.8-7.4,2.2l-0.3-1.4c2.6-0.4,5.2-1.2,7.7-2.4
	C80.1,127.2,82.2,125.7,83.7,124z"/>
<path d="M93.4,130.6v-10.1h1.8v10.1H93.4z M105.4,120.5h1.9v5.9c0,3.9-0.9,6.8-2.6,8.7c-1.7,1.9-4.6,3.1-8.6,3.7l-0.3-1.7
	c3.5-0.5,6-1.6,7.4-3.2c1.4-1.6,2.1-4.1,2.1-7.5V120.5z"/>
<path d="M114.6,121.2h18.2v1.6c-0.5,1.7-1.3,3.2-2.4,4.5c-1.1,1.3-2.5,2.4-4.1,3.2l-0.9-1.4c2.9-1.4,4.7-3.5,5.5-6.2h-16.2V121.2z
	 M121.4,124.9h1.7c0,3.9-0.5,6.9-1.4,8.9c-1,2-2.6,3.5-5,4.5l-0.8-1.5c2-0.8,3.4-2.2,4.2-3.9C121,131.1,121.4,128.5,121.4,124.9z"/>
<path d="M149.9,128.5l1.6-0.8c1.7,3.3,3.3,6.5,4.8,9.7l-1.7,0.7l-1.1-2.3c-6.1,0.9-11.8,1.5-17,1.7l0-1.6c0.6,0,1.4-0.1,2.4-0.1
	c1.9-5,3.5-10.2,4.8-15.6l1.8,0.3c-1.2,5.3-2.8,10.4-4.6,15.2c3.8-0.3,7.8-0.7,11.9-1.3L149.9,128.5z"/>
<path d="M174.3,119.4l1.2-0.7c0.7,1,1.3,2,2.1,3.2l-1.2,0.6l-0.7-1.2c-0.7,3.1-2.1,6-4.4,8.8c2.6,2.5,4.9,4.7,6.9,6.8l-1.2,1.2
	c-2-2.2-4.3-4.4-6.8-6.8c-2.6,2.8-5.8,5-9.4,6.5l-0.7-1.5c3.3-1.5,6.1-3.4,8.4-5.8c2.3-2.4,4-5,4.9-7.8H162v-1.6h13.5
	C175.1,120.6,174.7,120,174.3,119.4z M179.2,122c-0.9-1.4-1.6-2.5-2.1-3.3l1.2-0.7c0.7,1.1,1.4,2.2,2.1,3.3L179.2,122z"/>
<path d="M88.3,157.1h8v1.5H79.9v6.4c0,2.8-0.2,5-0.7,6.6s-1.3,3-2.4,4.3l-1.3-1.2c1.1-1.2,1.8-2.5,2.2-3.9c0.1-0.4,0.2-1,0.3-1.6
	c-0.8,0.5-1.7,1-2.7,1.4l-0.5-1.6c1.4-0.6,2.5-1.2,3.4-1.8c0.1-1,0.1-2,0.1-3.2v-0.3l-0.7,0.4c-0.9-1.5-1.7-2.9-2.7-4.2l1.4-0.9
	c0.7,1,1.4,2,2,3v-4.9h8.3v-2h1.8V157.1z M89.6,174h6.8v1.5H79.7V174h2.7v-9.1h1.8v9.1h3.7v-11.6h-6.5v-1.5h14.8v1.5h-6.4v4.4h5.7
	v1.5h-5.7V174z"/>
<path d="M101.4,162.2v14.1h-1.7v-10.8c-0.4,0.9-0.9,1.8-1.4,2.6l-0.8-1.8c1.8-2.9,3.1-6.5,3.8-10.5l1.6,0.2
	C102.7,158.2,102.1,160.3,101.4,162.2z M103.4,173.6v-14.2h1.6v14.2H103.4z M106.1,170.1v-1.5h5.9v-0.2v-2.6h-3.1
	c-0.5,0.8-1.1,1.5-1.7,2.3l-1.3-0.9c1.2-1.3,2.2-2.9,3-4.6h-2.7V161h9l0.3-3.2H107v-1.5h10.4L117,161h2.4v1.5h-8.8
	c-0.2,0.6-0.5,1.3-0.8,1.8h9v1.4h-4.9v2.6v0.2h5.6v1.5H114c0.6,2.2,2.5,3.7,5.6,4.6l-0.6,1.5c-2-0.6-3.7-1.6-5-3.1
	c-0.5-0.5-0.8-1.1-1.1-1.7c-0.4,0.6-0.9,1.2-1.5,1.8c-1.6,1.5-3.7,2.4-6.3,3l-0.6-1.6c4-0.8,6.4-2.4,7.2-4.6H106.1z"/>
<path d="M138.2,169.4h4.5v1.6h-4.5v5.3h-1.8V171h-4.6v-1.6h4.6v-3.9h-4.1V164h4.1v-3.6h-4.2v1.3h-1.1v4h-5.6
	c-0.2,0.7-0.4,1.4-0.6,2.1h6.3v8.3h-1.7V175h-4.6v1.1h-1.6v-5.4c-0.5,0.9-1.1,1.8-1.7,2.5l-0.8-1.6c1.3-1.6,2.3-3.5,2.9-5.8h-2v-1.4
	h2.3c0.2-0.8,0.3-1.6,0.4-2.5h-3.3v-1.4h3.4c0-0.8,0.1-1.6,0.1-2.4H122v-1.4h9.1v3.8h0.9v-1.4h2.6c-0.5-1.2-1-2.2-1.4-3.1l1.6-0.4
	c0.6,1.2,1.1,2.3,1.6,3.5h1.9c0.6-1.2,1.1-2.3,1.5-3.5l1.7,0.3c-0.4,1-0.8,2.1-1.4,3.2h2.3v1.5h-4.2v3.6h3.9v1.5h-3.9V169.4z
	 M124.9,173.6h4.6v-4.4h-4.6V173.6z M125.8,164.3h3.6v-2.5h-3.2C126.1,162.6,126,163.5,125.8,164.3z M129.4,157.9h-3
	c0,0.8,0,1.6-0.1,2.4h3.1V157.9z"/>
<path d="M278.1,121.2h18.2v1.6c-0.5,1.7-1.3,3.2-2.4,4.5s-2.5,2.4-4.1,3.2l-0.9-1.4c2.9-1.4,4.7-3.5,5.5-6.2h-16.2V121.2z
	 M284.9,124.9h1.7c0,3.9-0.5,6.9-1.4,8.9c-1,2-2.6,3.5-5,4.5l-0.8-1.5c2-0.8,3.4-2.2,4.2-3.9C284.5,131.1,284.9,128.5,284.9,124.9z"
	/>
<path d="M302.7,121.1H317v1.7c-1.1,2.6-2.7,5.1-5,7.5c2.6,2.4,4.9,4.7,6.9,6.8l-1.2,1.2c-2-2.2-4.3-4.4-6.8-6.8
	c-2.6,2.5-5.7,4.7-9.3,6.5l-0.8-1.5c3.5-1.8,6.4-3.9,8.8-6.2c2.4-2.4,4.3-4.9,5.4-7.5h-12.3V121.1z"/>
<path d="M322.2,133.6c0.6-0.7,2.1-2.7,4.7-6.1c1.3-1.7,2.2-2.8,2.6-3.2c0.4-0.4,0.9-0.6,1.4-0.6c0.6,0,1.2,0.2,1.6,0.5
	s1.4,1.3,2.9,2.9l8,8.3l-1.3,1.3l-8-8.4c-1.1-1.2-1.8-2-2.2-2.3c-0.4-0.3-0.7-0.5-1-0.5c-0.2,0-0.4,0.2-0.7,0.6
	c-0.3,0.4-0.9,1.1-1.7,2.2l-4.8,6.2L322.2,133.6z M342.1,123.1c0,0.9-0.3,1.6-0.9,2.2c-0.6,0.6-1.4,0.9-2.2,0.9s-1.6-0.3-2.2-0.9
	s-0.9-1.4-0.9-2.2c0-0.9,0.3-1.6,0.9-2.2s1.4-0.9,2.2-0.9s1.6,0.3,2.2,0.9C341.8,121.5,342.1,122.3,342.1,123.1z M340.3,124.5
	c0.4-0.4,0.6-0.8,0.6-1.3c0-0.5-0.2-1-0.6-1.3c-0.4-0.4-0.8-0.6-1.3-0.6c-0.5,0-1,0.2-1.3,0.6c-0.4,0.4-0.6,0.8-0.6,1.3
	c0,0.5,0.2,1,0.6,1.3c0.4,0.4,0.8,0.6,1.4,0.6C339.5,125,339.9,124.8,340.3,124.5z"/>
<path d="M350.3,120.6h1.8v4.5c0,3-0.2,5.4-0.5,7c-0.3,1.7-0.9,3-1.6,3.8s-1.8,1.6-3.2,2.3l-0.9-1.5c1.2-0.6,2.1-1.3,2.7-2
	c0.6-0.7,1-1.8,1.3-3.3c0.3-1.5,0.4-3.6,0.4-6.4V120.6z M356.2,120.6h1.7v15.6c1.9-0.3,3.5-1.1,4.7-2.5c1.2-1.4,1.9-3.3,2.1-5.8
	l1.7,0.1c-0.6,6.5-4,9.9-10.2,10.2V120.6z"/>
<path d="M375.7,119.2h1.7c0,1.7,0,3.1-0.1,4.3h9v0.8c0,2.1-0.1,3.9-0.1,5.3c-0.1,1.4-0.2,2.7-0.3,3.7c-0.1,1-0.3,1.9-0.4,2.4
	c-0.2,0.6-0.4,1-0.7,1.3c-0.3,0.3-0.6,0.5-0.9,0.6s-0.8,0.1-1.3,0.1c-1.3,0-2.8-0.1-4.4-0.3l0.1-1.7c1.4,0.2,2.7,0.2,3.8,0.2
	c0.6,0,1.1-0.2,1.4-0.6c0.3-0.4,0.5-1.3,0.7-2.9c0.2-1.6,0.3-4.1,0.3-7.6v-0.1h-7.3c-0.3,3.3-1,5.9-2,7.9c-1,2-2.6,3.7-4.7,5.4
	l-1.1-1.2c1.2-1,2.2-1.9,3-2.9c0.8-1,1.4-2.2,1.9-3.7s0.9-3.3,1.1-5.5h-5.8v-1.6h5.9C375.6,122.4,375.7,121,375.7,119.2z
	 M382.9,119.3l1.4-0.8l2.3,3.6l-1.4,0.7C384.4,121.6,383.7,120.4,382.9,119.3z M386.1,118.8l1.4-0.8c0.9,1.3,1.7,2.5,2.4,3.7
	l-1.4,0.7C387.7,121.2,386.9,120,386.1,118.8z"/>
<path d="M392.5,129.7v-1.8h18.7v1.8H392.5z"/>
<path d="M320.8,157.1h8v1.5h-16.4v6.4c0,2.8-0.2,5-0.7,6.6c-0.5,1.6-1.3,3-2.4,4.3l-1.3-1.2c1.1-1.2,1.8-2.5,2.2-3.9
	c0.1-0.4,0.2-1,0.3-1.6c-0.8,0.5-1.7,1-2.7,1.4l-0.5-1.6c1.4-0.6,2.5-1.2,3.4-1.8c0.1-1,0.1-2,0.1-3.2v-0.3l-0.7,0.4
	c-0.9-1.5-1.7-2.9-2.7-4.2l1.4-0.9c0.7,1,1.4,2,2,3v-4.9h8.3v-2h1.8V157.1z M322.1,174h6.8v1.5h-16.7V174h2.7v-9.1h1.8v9.1h3.7
	v-11.6h-6.5v-1.5h14.8v1.5h-6.4v4.4h5.7v1.5h-5.7V174z"/>
<path d="M333.9,162.2v14.1h-1.7v-10.8c-0.4,0.9-0.9,1.8-1.4,2.6l-0.8-1.8c1.8-2.9,3.1-6.5,3.8-10.5l1.6,0.2
	C335.2,158.2,334.6,160.3,333.9,162.2z M335.9,173.6v-14.2h1.6v14.2H335.9z M338.6,170.1v-1.5h5.9v-0.2v-2.6h-3.1
	c-0.5,0.8-1.1,1.5-1.7,2.3l-1.3-0.9c1.2-1.3,2.2-2.9,3-4.6h-2.7V161h9l0.3-3.2h-8.4v-1.5h10.4l-0.4,4.7h2.4v1.5H343
	c-0.2,0.6-0.5,1.3-0.8,1.8h9v1.4h-4.9v2.6v0.2h5.6v1.5h-5.3c0.6,2.2,2.5,3.7,5.6,4.6l-0.6,1.5c-2-0.6-3.7-1.6-5-3.1
	c-0.5-0.5-0.8-1.1-1.1-1.7c-0.4,0.6-0.9,1.2-1.5,1.8c-1.6,1.5-3.7,2.4-6.3,3l-0.6-1.6c4-0.8,6.4-2.4,7.2-4.6H338.6z"/>
<path d="M370.7,169.4h4.5v1.6h-4.5v5.3h-1.8V171h-4.6v-1.6h4.6v-3.9h-4.1V164h4.1v-3.6h-4.2v1.3h-1.2v4H358
	c-0.2,0.7-0.4,1.4-0.6,2.1h6.3v8.3H362V175h-4.6v1.1h-1.6v-5.4c-0.5,0.9-1.1,1.8-1.7,2.5l-0.8-1.6c1.3-1.6,2.3-3.5,2.9-5.8h-2v-1.4
	h2.3c0.2-0.8,0.3-1.6,0.4-2.5h-3.3v-1.4h3.5c0-0.8,0.1-1.6,0.1-2.4h-2.7v-1.4h9.1v3.8h0.9v-1.4h2.6c-0.5-1.2-1-2.2-1.4-3.1l1.6-0.4
	c0.6,1.2,1.1,2.3,1.6,3.5h1.9c0.6-1.2,1.1-2.3,1.5-3.5l1.7,0.3c-0.4,1-0.8,2.1-1.4,3.2h2.3v1.5h-4.2v3.6h3.9v1.5h-3.9V169.4z
	 M357.4,173.6h4.6v-4.4h-4.6V173.6z M358.3,164.3h3.6v-2.5h-3.2C358.6,162.6,358.5,163.5,358.3,164.3z M361.9,157.9h-3
	c0,0.8,0,1.6-0.1,2.4h3.1V157.9z"/>
<path d="M33.6,349.3v-1.6h4.9v0v-4.9h-1.9c-0.5,1.5-1,2.9-1.7,4.2l-1.4-0.6c1.1-2.1,1.9-4.7,2.5-7.5l1.6,0.3
	c-0.1,0.7-0.3,1.4-0.5,2.1h6.7v1.5h-3.5v4.9v0h3.8v1.6h-3.9c0,0.4-0.1,0.8-0.2,1.2c1.6,2.4,3,4.6,4.2,6.7l-1.4,1
	c-1.1-1.9-2.2-3.7-3.3-5.5c-0.2,0.7-0.5,1.3-0.8,2c-1.1,2.2-2.4,3.8-4.1,4.9l-1-1.4c1.5-1.1,2.8-2.5,3.6-4.3
	c0.7-1.4,1.1-2.9,1.2-4.5H33.6z M53.8,340.8v18.7h-1.7V358h-5.5v1.4h-1.7v-18.7H53.8z M46.5,356.5h5.5v-14.1h-5.5V356.5z"/>
<path d="M74.5,359.6c-1.3,0-2.8-0.1-4.7-0.2l0-1.6c1.8,0.1,3.2,0.2,4,0.2c0.3,0,0.6-0.3,0.7-0.9c0.2-0.6,0.3-1.9,0.5-4.1
	c0.2-2.1,0.3-5.3,0.4-9.5h-6.8c-0.1,0.4-0.3,0.7-0.5,1.1c-0.8,1.7-1.7,3.2-2.7,4.3l-0.6-0.6v9.4h-6v1.8H57v-17.2h2.6
	c0.5-1,0.9-2.1,1.2-3.2l1.7,0.3c-0.3,1-0.6,2-1.1,3h3.4v4.7c0.7-0.9,1.3-2,1.8-3.2c0.7-1.5,1.2-3.1,1.6-4.8l1.7,0.2
	c-0.2,0.9-0.5,1.7-0.8,2.6h7.9c-0.1,2.8-0.1,5.2-0.2,7.1c-0.1,1.9-0.1,3.5-0.3,4.9c-0.1,1.3-0.2,2.4-0.3,3.1
	c-0.1,0.8-0.3,1.3-0.5,1.7c-0.2,0.4-0.4,0.6-0.6,0.7S74.8,359.5,74.5,359.6z M58.7,349.2h4.4v-5.3h-4.4V349.2z M58.7,350.7v5.5h4.4
	v-5.5H58.7z M67.9,347.3l1.5-0.8c1.3,1.9,2.4,4,3.3,6.2l-1.5,0.7C70.2,351.1,69.1,349.1,67.9,347.3z"/>
<path d="M85.4,346.4v-1.4h3.8c-0.4-0.8-0.9-1.6-1.3-2.4h-1.7c-0.6,1.6-1.3,3.1-2.1,4.7c0.7,0.9,1.2,1.7,1.5,2.5
	c0.3,0.8,0.4,1.6,0.4,2.6c0,1.1-0.2,1.9-0.7,2.3c-0.5,0.5-1.2,0.7-2.3,0.7h-0.6l-0.3-1.5h0.6c0.6,0,1.1-0.1,1.3-0.4
	c0.2-0.3,0.4-0.8,0.4-1.5c0-0.9-0.1-1.6-0.4-2.3c-0.3-0.6-0.9-1.5-1.7-2.4c1-1.9,1.9-3.8,2.6-5.8h-3.2V360H80v-19.9h6.6v1H92v-1.9
	h1.8v1.9h6.3v1.4h-2.4c-0.3,0.9-0.7,1.7-1.2,2.4h3.8v1.4H85.4z M88.4,354.3h-1.7v-6.9h12.4v6.9h-5.3v1.3h6.6v1.5h-6.6v2.9H92v-2.9
	h-7.6v-1.5H92v-1.3H88.4z M88.4,350.2h8.9v-1.4h-8.9V350.2z M88.4,351.4v1.5h8.9v-1.5H88.4z M94.6,344.9c0.5-0.8,1-1.6,1.3-2.4h-6.1
	c0.4,0.7,0.8,1.5,1.2,2.4H94.6z"/>
<path d="M113.8,350h9.2v1.5h-20.1V350h9.2v-1.8h-7.8v-1.4h7.8v-1.6h-7.1v-0.7h-1.7v-3.7h8.8V339h1.8v1.9h8.8v3.7h-1.7v0.7h-7.1v1.6
	h7.8v1.4h-7.8V350z M104.8,343.8h7.1v-1.5h-7.1V343.8z M106.9,358.8v1.1H105v-7h15.6v7h-1.8v-1.1H106.9z M118.8,357.3v-2.9h-12v2.9
	H118.8z M113.8,342.3v1.5h7.1v-1.5H113.8z"/>
<path d="M143.5,358.5c-1.8,0.3-3.7,0.5-5.8,0.5c-2.8,0-4.8-0.3-6.1-1c-1.3-0.7-1.9-1.7-1.9-3.1c0-2.4,2.3-4.3,6.9-5.6
	c-0.2-0.7-0.5-1.2-0.9-1.5c-0.4-0.3-0.8-0.4-1.4-0.4c-0.9,0-2,0.4-3.1,1.3c-1.2,0.9-2.3,2.2-3.5,3.8l-1.4-0.9c1.9-2.7,3.5-5.3,4.6-8
	h-4.5v-1.5h5.1c0.2-0.4,0.5-1.3,1-2.8l1.7,0.4c-0.4,1.1-0.7,1.9-0.9,2.4h10v1.5h-10.6l-1.7,3.6l0,0c1.3-0.9,2.5-1.4,3.6-1.4
	c1.8,0,3,1,3.6,2.9c1.5-0.4,3.3-0.7,5.3-0.9l0.2,1.5c-1.9,0.2-3.6,0.5-5.1,0.9c0.2,1.2,0.3,2.6,0.3,4.5h-1.8c0-1.7-0.1-3-0.2-4
	c-3.6,1.1-5.5,2.4-5.5,4c0,0.4,0.1,0.8,0.2,1.1c0.2,0.3,0.4,0.6,0.9,0.8c0.4,0.3,1.1,0.5,1.9,0.6c0.9,0.1,1.9,0.2,3.2,0.2
	c1.7,0,3.6-0.2,5.6-0.5L143.5,358.5z"/>
<path d="M152.1,345.4V360h-1.7v-11.3c-0.6,1.1-1.3,2.1-2,3.1l-0.8-1.9c2.2-2.9,3.7-6.4,4.5-10.6l1.7,0.3
	C153.4,341.7,152.9,343.7,152.1,345.4z M169.5,352.5v1.6h-6.6v5.9h-1.8v-5.9h-7.7v-1.6h7.7v-3.6H154v-1.5h7.1v-7.9h1.8v7.9h6v1.5h-6
	v3.6H169.5z M156.3,340.5c1.1,1.8,2,3.7,2.9,5.7l-1.5,0.6c-1-2.2-1.9-4.1-2.9-5.7L156.3,340.5z M169.1,341c-0.7,2-1.7,3.9-2.9,5.8
	l-1.5-0.6c1.2-1.9,2.1-3.9,2.8-5.8L169.1,341z"/>
<path d="M173.4,347.5c4-1,7.4-1.4,10.2-1.4c2.4,0,4.1,0.4,5.2,1.3c1,0.9,1.6,2,1.6,3.4c0,2.3-1.1,4.1-3.3,5.6
	c-2.2,1.5-5.2,2.4-9.1,2.7l-0.4-1.6c3.6-0.3,6.3-1.1,8.2-2.3c1.9-1.2,2.9-2.6,2.9-4.3c0-2.1-1.7-3.1-5.1-3.1c-2.5,0-5.7,0.5-9.8,1.4
	L173.4,347.5z M176.6,341.9l0.2-1.6c3.6,0.6,6.9,0.9,10.2,0.9v1.6C183.9,342.8,180.5,342.5,176.6,341.9z"/>
<path d="M64.6,381h-9.4v4.7h7.1v10.9h-1.8v-1.4H48.1v1.4h-1.8v-10.9h7.1V381h-9.4v-1.6h9.4V376h1.8v3.4h9.4V381z M48.1,393.6h12.5
	v-6.3H48.1V393.6z"/>
<path d="M88,391.1H66.7v-1.5h1.6v-11.1h5.5V376h1.6v2.5h3.8V376h1.6v2.5h5.5v11.1H88V391.1z M67.2,395.3c3.1-1,5.5-2.3,7.2-3.7
	l1,1.2c-1.8,1.6-4.3,2.9-7.5,4L67.2,395.3z M73.8,379.9H70v3.9h3.8V379.9z M70,385.3v4.3h3.8v-4.3H70z M79.2,379.9h-3.8v3.9h3.8
	V379.9z M79.2,389.6v-4.3h-3.8v4.3H79.2z M79.4,393l0.7-1.3c3,1.2,5.5,2.5,7.4,3.8l-0.9,1.4C84.7,395.6,82.2,394.2,79.4,393z
	 M80.8,379.9v3.9h3.8v-3.9H80.8z M80.8,389.6h3.8v-4.3h-3.8V389.6z"/>
<path d="M108,396.4c-1.3,0-2.8-0.1-4.7-0.2l0-1.6c1.8,0.1,3.2,0.2,4,0.2c0.3,0,0.6-0.3,0.7-0.9c0.2-0.6,0.3-1.9,0.5-4.1
	c0.2-2.1,0.3-5.3,0.4-9.5h-6.8c-0.1,0.4-0.3,0.7-0.5,1.1c-0.8,1.7-1.7,3.2-2.7,4.3l-0.6-0.6v9.4h-6v1.8h-1.7v-17.2H93
	c0.5-1,0.9-2.1,1.2-3.2l1.7,0.3c-0.3,1-0.6,2-1.1,3h3.4v4.7c0.7-0.9,1.3-2,1.8-3.2c0.7-1.5,1.2-3.1,1.6-4.8l1.7,0.2
	c-0.2,0.9-0.5,1.7-0.8,2.6h7.9c-0.1,2.8-0.1,5.2-0.2,7.1c-0.1,1.9-0.1,3.5-0.3,4.9c-0.1,1.3-0.2,2.4-0.3,3.1
	c-0.1,0.8-0.3,1.3-0.5,1.7c-0.2,0.4-0.4,0.6-0.6,0.7S108.3,396.3,108,396.4z M92.2,386h4.4v-5.3h-4.4V386z M92.2,387.5v5.5h4.4v-5.5
	H92.2z M101.4,384.1l1.5-0.8c1.3,1.9,2.4,4,3.3,6.2l-1.5,0.7C103.7,387.9,102.6,385.9,101.4,384.1z"/>
<path d="M116.5,395.3v1.2h-1.8v-17.9h6.7c0.4-1,0.8-2.1,1.1-3.1l1.8,0.3c-0.3,1-0.6,2-1,2.9h8.7v17.9h-1.8v-1.2H116.5z M130.2,383.7
	v-3.5h-13.7v3.5H130.2z M116.5,388.7h13.7v-3.6h-13.7V388.7z M116.5,393.8h13.7v-3.7h-13.7V393.8z"/>
<path d="M136.6,396.6v-19.8h8.9v8.3h-7.1v11.5H136.6z M138.3,380.3h5.4v-2.1h-5.4V380.3z M138.3,381.6v2.2h5.4v-2.2H138.3z
	 M140.6,394.7l-0.8-1.3c1.3-0.7,2.7-1.5,4-2.5c0.9-0.7,1.7-1.3,2.5-2h-6v-1.4h7.1v-1.6h1.7v1.6h3.3v1.4H149v5.5
	c0,0.8-0.1,1.2-0.4,1.4c-0.3,0.2-0.9,0.3-2,0.3c-0.7,0-1.5,0-2.3-0.1l0-1.4c0.9,0.1,1.7,0.1,2.3,0.1c0.4,0,0.6-0.1,0.6-0.1
	c0.1-0.1,0.1-0.3,0.1-0.6v-4.2c-0.8,0.8-1.7,1.5-2.6,2.2C143.3,393.1,141.9,394,140.6,394.7z M153.2,396.4c-0.6,0-1.5,0-2.5-0.1
	l-0.1-1.5c1.3,0.1,2,0.1,2.3,0.1c0.7,0,1.1-0.1,1.2-0.2c0.1-0.1,0.2-0.5,0.2-1.1v-8.4H147v-8.3h9.1v16.7c0,1.3-0.2,2.1-0.5,2.4
	C155.3,396.3,154.5,396.4,153.2,396.4z M154.3,380.3v-2.1h-5.6v2.1H154.3z M154.3,381.6h-5.6v2.2h5.6V381.6z"/>
<path d="M171.8,377.6h8v1.5h-16.4v6.4c0,2.8-0.2,5-0.7,6.6s-1.3,3-2.4,4.3l-1.3-1.2c1.1-1.2,1.8-2.5,2.2-3.9c0.1-0.4,0.2-1,0.3-1.6
	c-0.8,0.5-1.7,1-2.7,1.4l-0.5-1.6c1.4-0.6,2.5-1.2,3.4-1.8c0.1-1,0.1-2,0.1-3.2v-0.3l-0.7,0.4c-0.9-1.5-1.7-2.9-2.7-4.2l1.4-0.9
	c0.7,1,1.4,2,2,3v-4.9h8.3v-2h1.8V377.6z M173.1,394.5h6.8v1.5h-16.7v-1.5h2.7v-9.1h1.8v9.1h3.7v-11.6h-6.5v-1.5h14.8v1.5h-6.4v4.4
	h5.7v1.5h-5.7V394.5z"/>
<path d="M319.3,341h9.2v1.5h-20.2V341h9.2v-2h1.8V341z M308.8,349.8h19v6.9c0,1.3-0.1,2.1-0.4,2.4c-0.3,0.3-1,0.5-2.1,0.5
	c-0.4,0-1.4,0-2.9-0.1l-0.1-1.6c1.4,0.1,2.2,0.1,2.6,0.1c0.6,0,0.9-0.1,1-0.2s0.2-0.5,0.2-1.1v-5.5h-15.5v8.4h-1.7V349.8z
	 M313.3,348.5h-1.8v-4.7h13.7v4.7H313.3z M313.1,352.6h10.5v4.8h-8.8v1h-1.7V352.6z M313.3,347.2h10v-2h-10V347.2z M314.8,356h7.1
	v-2h-7.1V356z"/>
<path d="M330.7,343.5h2.5v-4h1.7v4h1.8c-0.3-0.4-0.6-0.7-0.9-1.1l1.1-0.9c0.2,0.2,0.4,0.5,0.7,0.8c0.6-1.1,1.2-2.1,1.6-3l1.4,0.5
	c-0.6,1.2-1.3,2.4-2,3.6c0.4,0.4,0.8,0.9,1.2,1.4c0.7-1.2,1.4-2.5,2.1-3.8l1.2,0.4c0-0.6,0-1.3,0-2h1.6c0,0.9,0,1.7,0,2.6l0.9-0.6
	c0.2,0.2,0.4,0.5,0.6,0.7c0.6-1,1.1-1.9,1.5-2.8l1.4,0.5c-0.6,1.2-1.2,2.4-1.9,3.5c0.4,0.5,0.7,0.9,1.1,1.3c0.7-1.2,1.4-2.4,2.1-3.7
	l1.4,0.5c-0.6,1.2-1.3,2.5-2,3.6l1.2-0.3c0.4,1.5,0.9,3.2,1.3,5.1l-1.3,0.3c-0.1-0.4-0.2-0.7-0.3-1.1c-0.6,0.1-1.3,0.1-1.9,0.2
	c0.5,0.6,0.9,1.2,1.3,1.8h2.1v1.4h-5.8c0.1,0.4,0.2,0.8,0.4,1.1c0.2,0.5,0.4,0.9,0.6,1.3c0.7-0.7,1.3-1.4,1.8-2.2l1.2,0.8
	c-0.6,1-1.4,1.9-2.2,2.8c0.3,0.4,0.5,0.7,0.8,0.9c0.3,0.4,0.6,0.6,0.8,0.7c0.2,0.1,0.3,0.2,0.4,0.2c0.4,0,0.7-1.1,1-3.2l1.4,0.6
	c-0.4,2.9-1.1,4.4-2.2,4.4c-0.4,0-0.9-0.1-1.4-0.4c-0.5-0.3-1-0.7-1.5-1.3c-0.2-0.2-0.5-0.5-0.7-0.8c-1.3,1-2.9,1.9-4.6,2.5
	l-0.6-1.4c1.7-0.6,3.2-1.4,4.5-2.4l-0.1-0.3c-0.4-1-0.8-2-1.2-3.2h-4.6c0,0.4-0.1,0.7-0.1,1.1c1,1.1,2.3,2,3.8,2.7l-0.6,1.4
	c-1.3-0.6-2.5-1.4-3.5-2.4c-0.1,0.4-0.3,0.8-0.4,1.2c-0.6,1.5-1.3,2.7-2.3,3.5l-1.3-1.1c0.9-0.8,1.5-1.9,2-3.1
	c0.4-1,0.7-2.1,0.8-3.3h-2.2V351c-0.4-1-0.8-2-1.2-2.9V360h-1.7V350c-0.5,1.8-1.2,3.5-2,5.1l-1-1.6c1.4-2.7,2.4-5.5,2.9-8.5h-2.5
	V343.5z M335,345c0.5,1.2,1.1,2.3,1.6,3.5c0.2,0,0.5,0,0.7,0c0.5-0.8,1.1-1.5,1.6-2.3c-0.6-0.7-1.2-1.4-1.8-2.2v1.1H335z
	 M344.1,350.9c-0.3-1.2-0.6-2.7-0.7-4.4c-0.2-1.5-0.3-3.1-0.3-4.8c-0.6,1.2-1.3,2.3-2,3.4l1.1-0.3c0.6,2,1.1,3.8,1.4,5.3l-1.3,0.4
	c-0.1-0.4-0.2-0.7-0.3-1.1l-4.8,0.4c0.1,0.2,0.2,0.5,0.3,0.7l-0.6,0.4H344.1z M341.7,348.1c-0.2-0.8-0.5-1.7-0.7-2.6
	c-0.6,1-1.3,1.9-1.9,2.9L341.7,348.1z M345.2,348l0.7,0c0.5-0.7,1-1.4,1.4-2.1c-1-1.3-1.9-2.4-2.6-3.3c0,1,0.1,2,0.2,2.9
	C345,346.5,345.1,347.3,345.2,348z M345.8,350.9h2.5c-0.4-0.6-0.8-1.2-1.2-1.7c-0.5,0-1.1,0.1-1.6,0.1c0,0.3,0.1,0.6,0.2,0.8
	L345.8,350.9z M350.1,347.7c-0.2-0.9-0.5-1.7-0.7-2.6c-0.6,0.9-1.2,1.9-1.9,2.8L350.1,347.7z"/>
<path d="M360.2,341l1.5-0.6c1.1,1.7,2.2,3.6,3.2,5.5l-1.5,0.7c-0.2-0.4-0.4-0.9-0.7-1.3c-3,0.4-6.1,0.6-9.1,0.7l-0.1-1.5
	c0.5,0,1,0,1.5-0.1c0.8-1.5,1.7-3.3,2.4-5.2l1.8,0.3c-0.7,1.6-1.4,3.2-2.3,4.7c1.6-0.1,3.3-0.3,5-0.4C361.4,343,360.8,342,360.2,341
	z M363.6,357.6c0,1-0.1,1.6-0.3,1.9c-0.2,0.2-0.6,0.4-1.4,0.4c-0.6,0-1.4,0-2.7-0.1l0-1.5c1.1,0.1,1.7,0.1,1.9,0.1
	c0.4,0,0.6,0,0.7-0.1s0.1-0.3,0.1-0.6v-1.9h-5.4v4.2h-1.7V347h8.8V357.6z M356.6,350.7h5.4v-2.2h-5.4V350.7z M356.6,352v2.2h5.4V352
	H356.6z M369.7,347.6c0.4,0,1,0,1.6,0c0.7,0,1.1-0.2,1.2-0.4c0.1-0.2,0.3-1.1,0.4-2.5l1.7,0.2c-0.1,0.7-0.1,1.3-0.2,1.7
	c0,0.4-0.1,0.7-0.2,1.1c-0.1,0.4-0.2,0.6-0.3,0.8c-0.1,0.2-0.3,0.3-0.5,0.4c-0.2,0.1-0.4,0.2-0.7,0.2c-0.2,0-0.6,0.1-1,0.1
	c-0.9,0-1.6,0-2.2,0c-0.6,0-1.3,0-2.2,0c-0.9-0.1-1.5-0.2-1.7-0.3c-0.2-0.2-0.3-0.5-0.3-1.2v-7.7h1.8v3.2c2.2-0.6,4.4-1.5,6.6-2.6
	l0.6,1.4c-2.4,1.2-4.9,2.1-7.3,2.8v2.3c0,0.3,0.1,0.5,0.1,0.6c0.1,0.1,0.3,0.1,0.8,0.1C368.7,347.5,369.2,347.6,369.7,347.6z
	 M369.7,358.2c0.4,0,1,0,1.6,0c0.8,0,1.2-0.2,1.4-0.4c0.2-0.3,0.3-1.2,0.4-2.7l1.7,0.2c-0.1,0.8-0.1,1.3-0.2,1.7
	c-0.1,0.4-0.1,0.8-0.2,1.2c-0.1,0.4-0.2,0.6-0.3,0.8s-0.3,0.3-0.5,0.4c-0.2,0.1-0.5,0.2-0.7,0.2c-0.2,0-0.6,0.1-1,0.1
	c-0.9,0-1.6,0-2.2,0c-0.6,0-1.3,0-2.2,0c-0.9,0-1.5-0.1-1.7-0.3c-0.2-0.2-0.3-0.6-0.3-1.2V350h1.8v2.9c2.2-0.6,4.4-1.5,6.6-2.6
	l0.6,1.4c-2.4,1.2-4.9,2.1-7.3,2.8v3.1c0,0.3,0.1,0.5,0.1,0.6c0.1,0.1,0.3,0.1,0.8,0.1C368.7,358.2,369.2,358.2,369.7,358.2z"/>
<path d="M297.1,381h-9.4v4.7h7.1v10.9h-1.8v-1.4h-12.5v1.4h-1.8v-10.9h7.1V381h-9.4v-1.6h9.4V376h1.8v3.4h9.4V381z M280.6,393.6
	h12.5v-6.3h-12.5V393.6z"/>
<path d="M320.5,391.1h-21.3v-1.5h1.6v-11.1h5.5V376h1.6v2.5h3.8V376h1.6v2.5h5.5v11.1h1.6V391.1z M299.7,395.3
	c3.1-1,5.5-2.3,7.2-3.7l1,1.2c-1.8,1.6-4.3,2.9-7.5,4L299.7,395.3z M306.3,379.9h-3.8v3.9h3.8V379.9z M302.5,385.3v4.3h3.8v-4.3
	H302.5z M311.7,379.9h-3.8v3.9h3.8V379.9z M311.7,389.6v-4.3h-3.8v4.3H311.7z M311.9,393l0.7-1.3c3,1.2,5.5,2.5,7.4,3.8l-0.9,1.4
	C317.2,395.6,314.7,394.2,311.9,393z M313.3,379.9v3.9h3.8v-3.9H313.3z M313.3,389.6h3.8v-4.3h-3.8V389.6z"/>
<path d="M340.5,396.4c-1.3,0-2.8-0.1-4.7-0.2l0-1.6c1.8,0.1,3.2,0.2,4,0.2c0.3,0,0.6-0.3,0.7-0.9c0.2-0.6,0.3-1.9,0.5-4.1
	c0.2-2.1,0.3-5.3,0.4-9.5h-6.8c-0.1,0.4-0.3,0.7-0.5,1.1c-0.8,1.7-1.7,3.2-2.7,4.3l-0.6-0.6v9.4h-6v1.8H323v-17.2h2.6
	c0.5-1,0.9-2.1,1.2-3.2l1.7,0.3c-0.3,1-0.6,2-1.1,3h3.4v4.7c0.7-0.9,1.3-2,1.8-3.2c0.7-1.5,1.3-3.1,1.6-4.8l1.7,0.2
	c-0.2,0.9-0.5,1.7-0.8,2.6h7.9c-0.1,2.8-0.1,5.2-0.2,7.1s-0.1,3.5-0.3,4.9c-0.1,1.3-0.2,2.4-0.3,3.1c-0.1,0.8-0.3,1.3-0.5,1.7
	c-0.2,0.4-0.4,0.6-0.6,0.7S340.8,396.3,340.5,396.4z M324.7,386h4.4v-5.3h-4.4V386z M324.7,387.5v5.5h4.4v-5.5H324.7z M333.9,384.1
	l1.5-0.8c1.3,1.9,2.4,4,3.3,6.2l-1.5,0.7C336.2,387.9,335.1,385.9,333.9,384.1z"/>
<path d="M349,395.3v1.2h-1.8v-17.9h6.7c0.4-1,0.8-2.1,1.1-3.1l1.8,0.3c-0.3,1-0.6,2-1,2.9h8.7v17.9h-1.8v-1.2H349z M362.7,383.7
	v-3.5H349v3.5H362.7z M349,388.7h13.7v-3.6H349V388.7z M349,393.8h13.7v-3.7H349V393.8z"/>
<path d="M369.1,396.6v-19.8h8.9v8.3h-7.1v11.5H369.1z M370.8,380.3h5.4v-2.1h-5.4V380.3z M370.8,381.6v2.2h5.4v-2.2H370.8z
	 M373.1,394.7l-0.8-1.3c1.3-0.7,2.7-1.5,4-2.5c0.9-0.7,1.7-1.3,2.5-2h-6v-1.4h7.1v-1.6h1.7v1.6h3.3v1.4h-3.3v5.5
	c0,0.8-0.1,1.2-0.4,1.4s-0.9,0.3-2,0.3c-0.7,0-1.5,0-2.3-0.1l0-1.4c0.9,0.1,1.7,0.1,2.3,0.1c0.4,0,0.6-0.1,0.6-0.1
	c0.1-0.1,0.1-0.3,0.1-0.6v-4.2c-0.8,0.8-1.7,1.5-2.6,2.2C375.8,393.1,374.4,394,373.1,394.7z M385.7,396.4c-0.6,0-1.5,0-2.5-0.1
	l-0.1-1.5c1.3,0.1,2,0.1,2.3,0.1c0.7,0,1.1-0.1,1.2-0.2c0.1-0.1,0.2-0.5,0.2-1.1v-8.4h-7.4v-8.3h9.1v16.7c0,1.3-0.2,2.1-0.5,2.4
	S387,396.4,385.7,396.4z M386.8,380.3v-2.1h-5.6v2.1H386.8z M386.8,381.6h-5.6v2.2h5.6V381.6z"/>
<path d="M404.3,377.6h8v1.5h-16.4v6.4c0,2.8-0.2,5-0.7,6.6c-0.5,1.6-1.3,3-2.4,4.3l-1.3-1.2c1.1-1.2,1.8-2.5,2.2-3.9
	c0.1-0.4,0.2-1,0.3-1.6c-0.8,0.5-1.7,1-2.7,1.4l-0.5-1.6c1.4-0.6,2.5-1.2,3.4-1.8c0.1-1,0.1-2,0.1-3.2v-0.3l-0.7,0.4
	c-0.9-1.5-1.7-2.9-2.7-4.2l1.4-0.9c0.7,1,1.4,2,2,3v-4.9h8.3v-2h1.8V377.6z M405.6,394.5h6.8v1.5h-16.7v-1.5h2.7v-9.1h1.8v9.1h3.7
	v-11.6h-6.5v-1.5h14.8v1.5h-6.4v4.4h5.7v1.5h-5.7V394.5z"/>
<path d="M183.7,25v-1.4h18.2V25H183.7z M185.8,22v-1.4h14.2V22H185.8z M187.4,37.9v0.9h-1.7v-6.3h14.2v6.3h-1.7v-0.9H187.4z
	 M186.1,28v-1.3h13.6V28H186.1z M186.1,30.9v-1.3h13.6v1.3H186.1z M198.2,36.6v-2.6h-10.8v2.6H198.2z"/>
<path d="M204.5,25.1v-1.4h7.8v1.4H204.5z M205.1,22.1v-1.4h6.7v1.4H205.1z M206.7,38V39h-1.5v-6.3h6.7V38H206.7z M205.3,28.1v-1.3
	h6.4v1.3H205.3z M205.3,31.1v-1.3h6.4v1.3H205.3z M206.7,36.7h3.7V34h-3.7V36.7z M215.7,24.4l0.5-2.2h-3.3v-1.4h10.1v1.4h-5.1
	l-0.5,2.2h4.6v3.9h1.5v1.4h-11.1v-1.4h2.4l0.6-2.6h-2.1v-1.3H215.7z M214.8,37.7v0.9h-1.6v-7.5h9.3v7.5h-1.6v-0.9H214.8z
	 M220.9,36.4v-3.9h-6.1v3.9H220.9z M216.5,28.3h3.8v-2.6h-3.3L216.5,28.3z"/>
<path d="M231.1,28.9h-2.2v-0.7c-1,0.7-2,1.3-3.1,1.8l-0.7-1.4c1.7-0.8,3.1-1.7,4.3-2.6c-1-0.9-2.1-1.8-3.1-2.7l1.1-1
	c1.1,0.9,2.2,1.9,3.2,2.8c1.2-1,2.1-2.1,2.8-3.2h-5.6v-1.4h7.8c0.5,1,1.1,1.9,1.8,2.8c0.9-0.9,1.6-1.8,2.3-2.8l1.2,0.8
	c-0.7,1-1.6,2.1-2.6,3.1l0.5,0.5c0.4,0.3,0.8,0.7,1.2,1c1-1,1.8-2,2.6-3.1l1.2,0.8c-0.8,1.1-1.7,2.2-2.6,3.1c1,0.6,2,1.3,3.2,1.8
	l-0.7,1.4c-1.1-0.6-2.2-1.2-3.2-1.9v0.8h-2.5v2.9h5.6v1.4h-5.6v3.4c0,0.3,0.1,0.5,0.2,0.6c0.2,0.1,0.6,0.1,1.4,0.1h0.9
	c0.2,0,0.4,0,0.6-0.1c0.2-0.1,0.3-0.2,0.4-0.2c0.1-0.1,0.1-0.3,0.2-0.5s0.1-0.6,0.1-0.8c0-0.3,0-0.7,0.1-1.3l1.6,0.2
	c0,0.8-0.1,1.3-0.1,1.7s-0.1,0.8-0.3,1.1c-0.1,0.4-0.3,0.6-0.4,0.8c-0.1,0.1-0.4,0.2-0.7,0.3c-0.4,0.1-0.7,0.2-1.1,0.2h-1.6
	c-1.4,0-2.2-0.1-2.6-0.3c-0.4-0.2-0.5-0.6-0.5-1.2v-3.9h-4.1c-0.3,1.1-0.7,2.1-1.3,2.9c-1,1.3-2.7,2.2-4.9,2.8l-0.5-1.4
	c1.9-0.5,3.3-1.3,4.1-2.4c0.4-0.5,0.7-1.2,0.9-1.9h-5v-1.4h5.3c0-0.3,0-0.7,0-1.1V28.9z M239.9,27.5c-0.7-0.5-1.3-1-1.9-1.6
	c-1.3-1.2-2.3-2.4-3.1-3.7c-0.8,1.3-1.8,2.5-3.1,3.7c-0.6,0.5-1.2,1.1-1.9,1.6H239.9z M232.7,31.7h3.9v-2.9h-3.8v1.8
	C232.8,31.1,232.7,31.4,232.7,31.7z"/>
<path d="M246.4,28h4.4v6.5c0.4,0.7,0.8,1.2,1.4,1.6c0.5,0.4,1.3,0.6,2.3,0.8c1,0.2,2.4,0.2,4.2,0.2h6.3l-0.1,1.4h-6.3
	c-2.1,0-3.7-0.1-4.9-0.4c-1.2-0.2-2.1-0.6-2.8-1.1c-0.3-0.3-0.6-0.6-0.8-0.9c-0.8,0.9-1.9,1.9-3.2,2.8l-0.8-1.3
	c1.2-0.8,2.2-1.7,3-2.5v-5.5h-2.8V28z M251.3,24.4l-1.1,1c-1.4-1.5-2.5-2.8-3.5-3.7l1.1-1C249,21.8,250.2,23.1,251.3,24.4z
	 M265,33.6v1.3h-5.7v1.7h-1.7v-1.7h-5.9v-1.3h5.9v-1.5h-5.3v-1.3h5.3v-1.5h-5.5V28h3c-0.2-0.9-0.5-1.8-0.7-2.7h-2.5v-1.3h5.8v-1.5
	h-5.4v-1.3h5.4v-1.3h1.7v1.3h5.1v1.3h-5.1v1.5h5.5v1.3h-2.1c-0.3,0.9-0.6,1.8-1,2.7h2.9v1.3h-5.3v1.5h5.1v1.3h-5.1v1.5H265z M260,28
	c0.4-0.9,0.7-1.8,1-2.7h-5c0.3,0.9,0.5,1.8,0.7,2.7H260z"/>
<path d="M453.5,251.8v-1.4h4.5v0v-4.5h-1.7c-0.4,1.4-0.9,2.7-1.6,3.8l-1.3-0.5c1-2,1.8-4.3,2.3-6.9l1.4,0.2c-0.1,0.7-0.3,1.3-0.4,2
	h6.1v1.4h-3.2v4.5v0h3.5v1.4h-3.5c0,0.4-0.1,0.7-0.2,1.1c1.5,2.2,2.8,4.2,3.8,6.1l-1.3,0.9c-1-1.7-2-3.4-3-5
	c-0.2,0.6-0.5,1.2-0.7,1.8c-1,2-2.2,3.5-3.7,4.5l-0.9-1.3c1.4-1,2.5-2.3,3.3-4c0.6-1.2,1-2.6,1.1-4.1H453.5z M471.9,244v17h-1.6
	v-1.3h-5v1.3h-1.5v-17H471.9z M465.3,258.3h5v-12.9h-5V258.3z"/>
<path d="M480,244.2l1.4-0.6c1.1,1.6,2,3.3,3,5.1l-1.4,0.6c-0.2-0.4-0.4-0.8-0.6-1.2c-2.8,0.3-5.5,0.6-8.3,0.7l-0.1-1.4
	c0.5,0,0.9,0,1.4-0.1c0.8-1.4,1.5-3,2.2-4.7l1.6,0.3c-0.6,1.5-1.3,2.9-2.1,4.3c1.5-0.1,3-0.2,4.5-0.4
	C481.1,246,480.6,245.1,480,244.2z M483.2,259.3c0,0.9-0.1,1.5-0.3,1.7c-0.2,0.2-0.6,0.3-1.2,0.3c-0.5,0-1.3,0-2.5-0.1l0-1.4
	c1,0.1,1.5,0.1,1.7,0.1c0.4,0,0.6,0,0.6-0.1c0.1-0.1,0.1-0.2,0.1-0.5v-1.7h-4.9v3.8h-1.6v-11.8h8V259.3z M476.7,253h4.9v-2h-4.9V253
	z M476.7,254.3v2h4.9v-2H476.7z M488.7,250.2c0.4,0,0.9,0,1.5,0c0.6,0,1-0.2,1.1-0.4c0.1-0.2,0.3-1,0.4-2.3l1.5,0.2
	c-0.1,0.7-0.1,1.2-0.1,1.5c0,0.3-0.1,0.7-0.2,1s-0.2,0.6-0.3,0.7c-0.1,0.1-0.2,0.3-0.4,0.4c-0.2,0.1-0.4,0.2-0.6,0.2
	c-0.2,0-0.5,0-0.9,0.1c-0.8,0-1.5,0-2,0c-0.5,0-1.2,0-2,0c-0.9-0.1-1.4-0.2-1.6-0.3c-0.2-0.1-0.3-0.5-0.3-1.1v-7h1.6v2.9
	c2-0.6,4-1.4,6.1-2.4l0.6,1.3c-2.2,1.1-4.4,1.9-6.7,2.5v2.1c0,0.3,0,0.5,0.1,0.5c0.1,0.1,0.3,0.1,0.7,0.1
	C487.8,250.2,488.3,250.2,488.7,250.2z M488.7,259.9c0.4,0,0.9,0,1.5,0c0.7,0,1.1-0.2,1.2-0.4c0.1-0.2,0.3-1,0.4-2.4l1.5,0.2
	c-0.1,0.7-0.1,1.2-0.2,1.6c-0.1,0.4-0.1,0.7-0.2,1.1s-0.2,0.6-0.3,0.7s-0.2,0.3-0.5,0.4s-0.4,0.2-0.7,0.2c-0.2,0-0.5,0-0.9,0.1
	c-0.8,0-1.5,0-2,0c-0.5,0-1.2,0-2,0c-0.9,0-1.4-0.1-1.6-0.3c-0.2-0.1-0.3-0.5-0.3-1.1v-7.5h1.6v2.6c2-0.6,4-1.4,6.1-2.4l0.6,1.3
	c-2.2,1.1-4.4,1.9-6.7,2.5v2.8c0,0.3,0,0.4,0.1,0.5c0.1,0.1,0.3,0.1,0.7,0.1C487.8,259.9,488.3,259.9,488.7,259.9z"/>
<path d="M456.5,282.2c-0.7-1.7-1.1-3.4-1.1-5.3c0-1.9,0.3-3.7,1.1-5.3c0.7-1.7,1.7-3.1,3-4.3h1.6c-2.7,2.6-4.1,5.8-4.1,9.7
	c0,3.9,1.4,7.1,4.1,9.7h-1.6C458.2,285.3,457.2,283.8,456.5,282.2z"/>
<path d="M464.6,283.5V268h1.8v15.5H464.6z"/>
<path d="M476.4,268c2.1,0,3.7,0.7,4.9,2.1s1.8,3.3,1.8,5.8c0,1.7-0.3,3.2-0.9,4.4c-0.6,1.2-1.5,2.1-2.6,2.6v0c1.1,0.3,2.1,0.7,3,1.4
	s1.7,1.4,2.2,2.3h-2c-0.7-1.1-1.6-1.9-2.5-2.3c-0.9-0.4-2.2-0.6-3.8-0.6c-2.1,0-3.7-0.7-4.9-2.1s-1.8-3.3-1.8-5.8s0.6-4.4,1.8-5.8
	S474.3,268,476.4,268z M476.4,282.3c1.6,0,2.8-0.5,3.7-1.6c0.9-1.1,1.3-2.7,1.3-4.8s-0.4-3.7-1.3-4.8c-0.9-1.1-2.1-1.6-3.7-1.6
	c-1.6,0-2.8,0.5-3.7,1.6c-0.9,1.1-1.3,2.7-1.3,4.8s0.4,3.7,1.3,4.8C473.5,281.8,474.8,282.3,476.4,282.3z"/>
<path d="M490.6,271.5c0.7,1.7,1.1,3.4,1.1,5.3c0,1.9-0.4,3.7-1.1,5.3s-1.7,3.1-3,4.3h-1.6c2.7-2.6,4.1-5.8,4.1-9.7
	c0-3.9-1.4-7.1-4.1-9.7h1.6C488.8,268.4,489.9,269.8,490.6,271.5z"/>
</svg>
