<?xml version="1.0" encoding="utf-8"?>
<!-- Generator: Adobe Illustrator 14.0.0, SVG Export Plug-In . SVG Version: 6.00 Build 43363)  -->
<!DOCTYPE svg PUBLIC "-//W3C//DTD SVG 1.1//EN" "http://www.w3.org/Graphics/SVG/1.1/DTD/svg11.dtd">
<svg version="1.1" id="レイヤー_1" xmlns="http://www.w3.org/2000/svg" xmlns:xlink="http://www.w3.org/1999/xlink" x="0px"
	 y="0px" width="971px" height="314px" viewBox="0 0 971 314" enable-background="new 0 0 971 314" xml:space="preserve">
<rect x="0" y="0" fill="#FFFFFF" width="970.5" height="313.899"/>
<linearGradient id="SVGID_1_" gradientUnits="userSpaceOnUse" x1="174.033" y1="46.5007" x2="1112.6321" y2="46.5007" gradientTransform="matrix(1 0 0 -1 -20.8999 316.4009)">
	<stop  offset="0" style="stop-color:#FFFFFF"/>
	<stop  offset="1" style="stop-color:#666666"/>
</linearGradient>
<rect x="16.1" y="237.5" fill="url(#SVGID_1_)" stroke="#848484" stroke-width="0.25" width="938.6" height="64.8"/>
<g>
	<g>
		<line fill="none" stroke="#1E1E1E" x1="23.8" y1="226.2" x2="513" y2="226.2"/>
		<path fill="#1E1E1E" d="M519,226.2c-2.8,1.1-6.399,2.899-8.5,4.8l1.7-4.8l-1.7-4.801C512.6,223.4,516.2,225.2,519,226.2z"/>
		<path fill="#1E1E1E" d="M17.8,226.2c2.801-1.101,6.4-2.9,8.5-4.801L24.6,226.2L26.3,231C24.1,229.1,20.6,227.3,17.8,226.2z"/>
	</g>
</g>
<g>
	<g>
		<line fill="none" stroke="#1E1E1E" x1="742.801" y1="226.2" x2="839.6" y2="226.2"/>
		<path fill="#1E1E1E" d="M845.7,226.2c-2.8,1.1-6.399,2.899-8.5,4.8l1.7-4.8l-1.7-4.801C839.301,223.4,842.801,225.2,845.7,226.2z"
			/>
		<path fill="#1E1E1E" d="M736.801,226.2c2.8-1.101,6.399-2.9,8.5-4.801l-1.7,4.801l1.7,4.8C743.2,229.1,739.6,227.3,736.801,226.2z
			"/>
	</g>
</g>
<g>
	<g>
		<line fill="none" stroke="#1E1E1E" x1="851.2" y1="226.2" x2="948" y2="226.2"/>
		<path fill="#1E1E1E" d="M954,226.2c-2.8,1.1-6.399,2.899-8.5,4.8l1.7-4.8l-1.7-4.801C947.7,223.4,951.2,225.2,954,226.2z"/>
		<path fill="#1E1E1E" d="M845.1,226.2c2.8-1.101,6.399-2.9,8.5-4.801l-1.7,4.801l1.7,4.8C851.5,229.1,848,227.3,845.1,226.2z"/>
	</g>
</g>
<g>
	<g>
		<line fill="none" stroke="#1E1E1E" x1="525.1" y1="226.2" x2="624.1" y2="226.2"/>
		<path fill="#1E1E1E" d="M630.1,226.2c-2.8,1.1-6.4,2.899-8.5,4.8l1.7-4.8l-1.7-4.801C623.801,223.4,627.301,225.2,630.1,226.2z"/>
		<path fill="#1E1E1E" d="M519,226.2c2.801-1.101,6.4-2.9,8.5-4.801l-1.699,4.801l1.699,4.8C525.4,229.1,521.9,227.3,519,226.2z"/>
	</g>
</g>
<g>
	<g>
		<line fill="none" stroke="#1E1E1E" x1="634.5" y1="226.2" x2="731.301" y2="226.2"/>
		<path fill="#1E1E1E" d="M737.301,226.2c-2.801,1.1-6.4,2.899-8.5,4.8l1.699-4.8l-1.699-4.801C731,223.4,734.5,225.2,737.301,226.2
			z"/>
		<path fill="#1E1E1E" d="M628.5,226.2c2.801-1.101,6.4-2.9,8.5-4.801l-1.699,4.801L637,231
			C634.801,229.1,631.301,227.3,628.5,226.2z"/>
	</g>
</g>
<path fill="#222222" d="M611.4,292.6v1.2h-1.8v-17.9h6.7c0.399-0.899,0.8-2,1.1-3.1l1.8,0.3c-0.3,1.101-0.7,2-1,2.9h8.7V293.9h-1.8
	V292.7h-13.7V292.6z M625.1,280.9v-3.5h-13.7v3.5H625.1z M611.4,286h13.7V282.4h-13.7V286z M611.4,291.1h13.7v-3.7h-13.7V291.1z"/>
<path fill="#222222" d="M631.5,293.9v-19.8h8.9v8.3h-7.1v11.5H631.5z M633.2,277.6h5.4v-2.1h-5.4V277.6z M633.2,278.9v2.2h5.4v-2.2
	H633.2z M635.5,291.9l-0.8-1.3c2.3-1.1,4.4-2.7,6.5-4.5h-6V284.7h7.101V283.1H644v1.601h3.301v1.399H644v5.5
	c0,0.8-0.1,1.2-0.399,1.4s-0.9,0.3-2,0.3c-0.7,0-1.5,0-2.3-0.1v-1.4c0.899,0.1,1.699,0.1,2.3,0.1c0.399,0,0.6-0.1,0.6-0.1
	c0.101-0.1,0.101-0.3,0.101-0.6V287C640.1,289.1,637.801,290.7,635.5,291.9z M648.1,293.7c-0.601,0-1.5,0-2.5-0.101l-0.101-1.5
	c1.301,0.101,2,0.101,2.301,0.101c0.699,0,1.1-0.101,1.199-0.2c0.101-0.101,0.2-0.5,0.2-1.101V282.5h-7.399v-8.3h9.1V290.9
	c0,1.301-0.2,2.101-0.5,2.4C650.2,293.5,649.4,293.7,648.1,293.7z M649.2,277.6v-2.1h-5.6v2.1H649.2z M649.2,278.9h-5.6v2.2h5.6
	V278.9z"/>
<path fill="#222222" d="M802.45,274.9h8v1.5h-16.399v6.4c0,2.8-0.2,5-0.7,6.6c-0.5,1.601-1.3,3-2.4,4.301l-1.3-1.2
	c0.7-0.8,1.3-1.601,1.7-2.5c0.399-0.8,0.6-1.9,0.8-3.101c-0.8,0.5-1.7,0.9-2.7,1.4l-0.5-1.601c1.3-0.5,2.5-1.1,3.4-1.8
	c0-0.899,0.1-2,0.1-3.2v-0.3l-0.7,0.4c-0.899-1.5-1.699-2.9-2.699-4.2l1.399-0.9c0.7,1.101,1.4,2.101,2,3V274.8h8.3v-2h1.801v2.1
	H802.45z M803.75,291.8h6.801v1.5h-16.7v-1.5h2.7v-9.1h1.8v9.1h3.7v-11.6h-6.5v-1.5h14.8v1.5h-6.601v4.399h5.7v1.5h-5.7V291.8z"/>
<path fill="#222222" d="M655.65,275.7h14.3v1.699c-1.1,2.601-2.7,5.101-5,7.5c2.6,2.4,4.9,4.7,6.9,6.801l-1.2,1.199
	c-2-2.199-4.3-4.399-6.8-6.8c-2.601,2.5-5.7,4.7-9.301,6.5l-0.8-1.5c3.4-1.8,6.4-3.899,8.8-6.2c2.4-2.3,4.301-4.899,5.4-7.5h-12.3
	V275.7L655.65,275.7z"/>
<path fill="#222222" d="M675.15,288.1c0.6-0.7,2.1-2.7,4.7-6.1c1.3-1.7,2.199-2.8,2.6-3.2s0.9-0.6,1.4-0.6
	c0.6,0,1.199,0.199,1.6,0.5c0.5,0.399,1.4,1.3,2.9,2.899l8,8.3l-1.301,1.3l-8-8.399c-1.1-1.2-1.8-2-2.199-2.3
	c-0.4-0.3-0.7-0.5-1-0.5c-0.2,0-0.4,0.2-0.7,0.6c-0.3,0.4-0.9,1.101-1.7,2.2l-4.8,6.2L675.15,288.1z M695.05,277.7
	c0,0.899-0.3,1.6-0.899,2.199c-0.601,0.601-1.4,0.9-2.2,0.9c-0.9,0-1.6-0.3-2.2-0.9c-0.6-0.6-0.899-1.399-0.899-2.199
	c0-0.9,0.3-1.601,0.899-2.2c0.601-0.601,1.4-0.9,2.2-0.9c0.9,0,1.6,0.3,2.2,0.9C694.75,276.1,695.05,276.8,695.05,277.7z
	 M693.25,279c0.4-0.4,0.601-0.8,0.601-1.3s-0.2-1-0.601-1.301c-0.399-0.3-0.8-0.6-1.3-0.6s-1,0.2-1.3,0.6
	c-0.4,0.4-0.6,0.801-0.6,1.301s0.199,1,0.6,1.3c0.4,0.399,0.8,0.6,1.4,0.6C692.45,279.6,692.85,279.4,693.25,279z"/>
<path fill="#222222" d="M701.15,291.2c4.6-0.4,8-1.601,10.2-3.7c2.199-2.101,3.3-5.2,3.399-9.3h-9.1c-0.9,2.699-2.4,5-4.6,7
	l-1.2-1.101c2.899-2.7,4.5-6,4.899-9.899l1.7,0.1c-0.1,0.9-0.2,1.7-0.399,2.3h10.5v0.8c0,4.9-1.2,8.601-3.601,11.101
	c-2.399,2.5-6.3,3.899-11.5,4.399L701.15,291.2z"/>
<path fill="#222222" d="M727.95,274.5v6.7c4.2,1,8.5,2.3,12.9,4l-0.601,1.699c-4.199-1.6-8.3-2.899-12.3-3.8v10.2h-1.8v-18.7h1.8
	V274.5z"/>
<path fill="#222222" d="M745.85,281.3h17.699c-0.199,3.8-1.399,6.7-3.6,8.5s-5.7,2.9-10.5,3.3l-0.2-1.6c4-0.3,6.9-1.101,8.8-2.5
	c1.9-1.4,3.101-3.4,3.5-6H745.85V281.3z M747.55,277.1v-1.7h14.4v1.7H747.55z"/>
<path fill="#222222" d="M781.35,283.1l1.6-0.8c1.7,3.3,3.3,6.5,4.8,9.7l-1.7,0.7l-1.1-2.301c-6.1,0.9-11.8,1.5-17,1.7v-1.6
	c0.6,0,1.4-0.101,2.4-0.101c1.899-5,3.5-10.199,4.8-15.6l1.8,0.3c-1.2,5.3-2.8,10.4-4.6,15.2c3.8-0.3,7.8-0.7,11.899-1.3
	L781.35,283.1z"/>
<path fill="#222222" d="M821.7,290.6c-0.8-1.8-1.1-3.8-1.1-5.899c0-2.101,0.4-4,1.1-5.9c0.8-1.8,1.9-3.4,3.3-4.8h1.7
	c-3,2.8-4.399,6.399-4.399,10.6s1.5,7.8,4.399,10.601H825C823.6,294,822.4,292.4,821.7,290.6z"/>
<path fill="#222222" d="M828.6,292.1l5.899-17h2.101l5.899,17h-2l-1.6-5h-6.8l-1.6,5H828.6z M832.6,285.6h5.8l-2.9-8.899l0,0
	L832.6,285.6z"/>
<path fill="#222222" d="M849.301,275.1c1.699,0,3.199,0.3,4.699,1v1.7c-1.5-0.8-3-1.2-4.5-1.2c-0.899,0-1.699,0.2-2.199,0.601
	c-0.5,0.399-0.801,1.1-0.801,2c0,1.5,1,2.6,3,3.3c1.9,0.6,3.2,1.399,4,2.2c0.801,0.8,1.101,1.8,1.101,3.1c0,1.5-0.4,2.6-1.3,3.4
	c-0.9,0.8-2.2,1.199-4,1.199c-1.601,0-3.101-0.399-4.4-1.1v-1.8c1.3,0.899,2.7,1.399,4.2,1.399c2.399,0,3.6-1,3.6-3.1
	c0-0.8-0.3-1.5-0.8-2.1c-0.5-0.601-1.4-1-2.6-1.4c-3.2-1.1-4.801-2.8-4.801-5c0-1.3,0.4-2.3,1.2-3
	C846.7,275.4,847.801,275.1,849.301,275.1z"/>
<path fill="#222222" d="M870.2,283.5c0,5.899-2.7,8.899-8.2,8.899c-1.5,0-2.8-0.1-4.1-0.399v-16.5c1.2-0.2,2.6-0.4,4.1-0.4
	C867.5,275.1,870.2,277.9,870.2,283.5z M868.5,283.5c0-2.3-0.5-4.101-1.6-5.2s-2.7-1.7-4.9-1.7c-0.8,0-1.5,0.101-2.199,0.2v13.8
	c0.699,0.101,1.399,0.2,2.199,0.2c2.2,0,3.9-0.6,4.9-1.7C868,287.9,868.5,286,868.5,283.5z"/>
<path fill="#222222" d="M877.301,278.9c0.8,1.801,1.199,3.801,1.199,5.9s-0.399,4-1.199,5.9c-0.801,1.8-1.9,3.399-3.301,4.8h-1.699
	c3-2.8,4.399-6.4,4.399-10.601s-1.5-7.8-4.399-10.6H874C875.5,275.5,876.6,277.1,877.301,278.9z"/>
<path fill="#222222" d="M517.9,129.4c1.3,0.9,2.5,2,3.7,3.2c1.5,1.5,2.4,3,2.5,4.5s-0.4,2.8-1.6,4c-1.301,1.3-2.7,1.9-4.2,1.8
	c-1.5-0.1-3-0.899-4.5-2.5c-0.7-0.699-1.4-1.5-2-2.199L507,143l-1.399-1.4L517.9,129.4z M513,137c0.601,0.7,1.2,1.5,1.801,2.1
	c1.1,1.101,2.199,1.7,3.3,1.8c1.1,0.101,2.1-0.3,3-1.199c0.899-0.9,1.3-1.9,1.2-2.9c-0.101-1.1-0.7-2.2-1.9-3.3
	c-0.7-0.7-1.4-1.3-2.2-1.8L513,137z"/>
<path fill="#222222" d="M531.301,154.6c-4.4,4.4-8.5,4.5-12.601,0.5c-1.1-1.1-2-2.2-2.7-3.3l12.2-12.2c1.101,0.7,2.2,1.601,3.3,2.7
	C535.5,146.4,535.4,150.5,531.301,154.6z M530,153.3c1.7-1.7,2.601-3.4,2.7-5c0-1.6-0.7-3.2-2.399-4.8
	c-0.601-0.601-1.2-1.101-1.801-1.5l-10.1,10.1c0.4,0.601,0.9,1.2,1.5,1.8c1.6,1.601,3.3,2.4,4.9,2.301
	C526.4,156.1,528.1,155.2,530,153.3z"/>
<path fill="#222222" d="M542.5,165.8c-4.399,4.4-8.5,4.5-12.6,0.5c-1.1-1.1-2-2.2-2.7-3.3l12.2-12.2c1.1,0.7,2.2,1.6,3.3,2.7
	C546.7,157.6,546.7,161.7,542.5,165.8z M541.2,164.5c1.7-1.7,2.601-3.4,2.7-5c0-1.601-0.7-3.2-2.4-4.8
	c-0.6-0.601-1.199-1.101-1.8-1.5l-10.1,10.1c0.4,0.6,0.9,1.2,1.5,1.8c1.6,1.601,3.3,2.4,4.9,2.3
	C537.6,167.3,539.301,166.4,541.2,164.5z"/>
<path fill="#222222" d="M542.6,170l1.1-1.101l5.2,5.2l-1.1,1.101L542.6,170z"/>
<path fill="#222222" d="M546.301,182.4l12.6-12.6l1.4,1.4L556,187.5l0,0l10.301-10.3l1.3,1.3L555,191.1L553.6,189.7l4.3-16.301l0,0
	L547.6,183.7L546.301,182.4z"/>
<path fill="#222222" d="M562.5,198.9c-1.699-1.699-2.399-3.5-2.3-5.6c0.2-2.1,1.2-4.1,3.3-6.1c2-2,4.101-3.101,6.101-3.301
	c2.1-0.199,3.899,0.601,5.6,2.301c1.7,1.699,2.4,3.5,2.3,5.6c-0.1,2.1-1.199,4.1-3.3,6.1c-2,2-4.1,3.101-6.1,3.301
	C566,201.3,564.1,200.5,562.5,198.9z M574.1,187.3c-1.3-1.3-2.7-1.8-4.3-1.6c-1.601,0.199-3.2,1.1-4.9,2.899
	c-1.7,1.7-2.7,3.4-2.9,4.9c-0.199,1.5,0.4,3,1.601,4.3c1.3,1.3,2.7,1.8,4.3,1.6c1.6-0.199,3.2-1.1,4.9-2.899
	c1.699-1.7,2.699-3.4,2.899-4.9C575.9,190,575.301,188.5,574.1,187.3z"/>
<path fill="#222222" d="M585.801,196.7c1.199,1.199,2.1,2.6,2.699,4.199l-1.3,1.301c-0.5-1.7-1.3-3.101-2.399-4.2
	c-0.7-0.7-1.4-1.101-2.101-1.2s-1.399,0.2-2.1,0.8c-1.1,1.101-1.2,2.601-0.2,4.601c0.9,1.899,1.4,3.399,1.3,4.6
	c0,1.2-0.5,2.2-1.399,3.1c-1.101,1.101-2.301,1.601-3.5,1.5c-1.2-0.1-2.5-0.8-3.801-2.1c-1.199-1.2-2-2.5-2.399-4l1.3-1.3
	c0.3,1.6,1,3,2.1,4.1c1.801,1.8,3.4,1.9,4.9,0.4c0.6-0.601,0.9-1.3,1-2.101c0-0.8-0.3-1.8-0.8-3c-1.5-3.1-1.5-5.6,0.2-7.199
	c0.899-0.9,2-1.4,3.1-1.301C583.6,195.1,584.7,195.6,585.801,196.7z"/>
<path fill="#222222" d="M223.2,193.5h19.7v1.6h-8.4v6.4h7.2v1.6h-7.2v8.101h8.9v1.6H222.8v-1.6h3.5V200.6h1.801V211.2h4.5V195.1
	h-9.4V193.5z"/>
<path fill="#222222" d="M249.5,192.7l1.601-0.5c0.5,0.699,1.1,1.6,1.699,2.699h3.2v-3h1.9v3h3.3c0.6-1,1.1-1.899,1.6-2.899
	l1.601,0.5c-0.3,0.6-0.7,1.399-1.3,2.399h4.1v5.5h-1.8v-4h-16.9v4h-1.8v-5.5h4.2C250.4,194.2,249.9,193.4,249.5,192.7z M251.9,204.1
	H250v-6.3h14v6.3h-6.1v1.5h8.1v4.2c0,1.3-0.1,2.1-0.399,2.4c-0.301,0.3-1,0.5-2.101,0.5c-0.5,0-1.5,0-3.1-0.101L260.3,211
	c1.2,0.1,2.101,0.1,2.7,0.1c0.5,0,0.9,0,1-0.2c0.101-0.199,0.2-0.5,0.2-1.199V207.1h-6.3v6.601H256V207.1h-6v5.7h-1.8v-7.3h7.9V204
	h-4.2V204.1z M251.9,202.7h10.2v-3.4h-10.2V202.7L251.9,202.7z"/>
<path fill="#222222" d="M270.8,197.5V195.9h4.4c0.3-0.899,0.6-2.1,1.1-3.6l1.7,0.2c-0.3,1.1-0.6,2.2-0.899,3.399h4.5v1.601h-5
	c-1.301,4.1-2.801,8.1-4.601,12.2l-1.6-0.601c1.7-4,3.2-7.899,4.399-11.6H270.8L270.8,197.5z M291.4,198c-1.4-0.2-3.101-0.4-4.9-0.4
	v8.8c1.5,0.801,3.2,2,5.101,3.601l-1.101,1.3c-1.5-1.2-2.899-2.2-4-3c-0.1,1.6-0.5,2.8-1.3,3.5s-2.1,1.1-3.9,1.1
	c-1.6,0-2.899-0.399-3.8-1.1c-0.899-0.7-1.399-1.7-1.399-3c0-1.2,0.399-2.2,1.3-2.9c0.899-0.699,2.1-1,3.8-1c1.1,0,2.3,0.2,3.5,0.7
	v-9.7c2.6,0,4.9,0.2,6.9,0.5L291.4,198z M284.7,207.3c-1.2-0.6-2.4-0.9-3.5-0.9c-2.2,0-3.4,0.801-3.4,2.4c0,0.8,0.301,1.4,0.9,1.9
	c0.6,0.399,1.4,0.699,2.5,0.699c1.3,0,2.2-0.199,2.7-0.699s0.7-1.4,0.7-2.7v-0.7H284.7z"/>
<path fill="#222222" d="M304.8,194.3c0.301-0.7,0.601-1.4,0.9-2.2l1.8,0.2c-0.3,0.7-0.5,1.3-0.8,1.9h7.6v1.5h-7.8v1.699h7.101v1.4
	H306.5v1.7h7.101v1.3H306.5v1.7h7.8v1.399H306v1.4h9.4v1.5h-8.5c2.2,1.3,5.2,2.5,9.1,3.6l-0.5,1.7c-4-1.3-7.2-2.7-9.5-4.2v4.9H304.1
	V209c-2.301,1.5-5.4,2.899-9.5,4.2l-0.5-1.7c3.8-1.101,6.899-2.3,9.1-3.601h-8.7v-1.5h9.601V205H296.5v-7c-0.5,0.8-1.1,1.6-1.6,2.3
	l-1.101-1.7c1.7-2,3-4.1,3.801-6.399l1.699,0.3c-0.199,0.7-0.5,1.3-0.699,1.899h6.199V194.3z M304.5,197.5v-1.7h-6.2v1.7H304.5z
	 M304.5,200.6v-1.7h-6.2v1.7H304.5z M304.5,201.9h-6.2v1.7h6.2V201.9z"/>
<path fill="#222222" d="M320.8,212.8v1.1H319V193H339.1V213.9H337.3v-1.1H320.8z M337.2,211.3v-16.7h-16.4v16.7H337.2z M336.3,197.9
	v1.601h-2.6v7.399c0,1.4-0.1,2.301-0.4,2.601c-0.199,0.3-0.899,0.5-2,0.5c-0.899,0-2.199,0-3.8-0.101v-1.6
	c1.5,0.1,2.601,0.1,3.2,0.1s0.9,0,1-0.199c0.1-0.101,0.1-0.601,0.1-1.301v-7.6h-10.1v-1.6h10.1V195.1h1.801v2.601h2.699V197.9z
	 M324,201.5l1.5-0.9c1.2,1.5,2.3,3.3,3.4,5.3l-1.5,0.801C326.3,204.8,325.2,203.1,324,201.5z"/>
<path fill="#222222" d="M589.4,107.2l1.1-1.101l4.4,4.4l2.6-2.601l-4.699-4.699L594,102l4.7,4.7l2.3-2.301l1.301,1.301l-7.101,7.1
	c-0.7,0.7-1.3,1.3-1.8,1.7c0.2,0.1,0.7,0.399,1.5,0.7L594,116.6c-0.3-0.1-1-0.5-2.1-1c-1.5,1-3,1.601-4.4,1.7
	c-1.5,0.1-3.199-0.1-5-0.7l0.2-1.899c1.4,0.5,2.7,0.699,3.9,0.699c1.1,0,2.3-0.3,3.4-0.899c-1.801-1-3.601-2-5.301-3.2l0.9-1.4
	c2,1.301,4,2.5,6,3.5c0.7-0.5,1.4-1.1,2.3-1.899L589.4,107.2z M601.301,125l-1.2,1.2L595,121L591.1,124.9l-1.4-1.399l15.2-15.2
	l1.4,1.4L604,112l5,5l-1.199,1.2l-5-5l-2.7,2.699l4.7,4.7L603.7,121.7L599,117L596.1,119.9L601.301,125z"/>
<path fill="#222222" d="M614.6,145.3l-1.2,1.1l-1.1-1.1c-3.2-3.2-5.301-5.8-6.301-7.9c-1.1-2.1-1.399-4.399-1-6.8
	c-2,0.9-3.899,1.601-5.8,2.101l-0.6-1.601c3.5-0.899,6.8-2.399,10-4.5l1,1.5c-0.7,0.5-1.6,1-2.7,1.601c-0.4,1.3-0.5,2.399-0.4,3.5
	c0.101,1.1,0.4,2.199,1,3.399l7.5-7.5l-4.5-4.5l1.101-1.1l10,10l-1.101,1.1l-4.1-4.1l-2.9,2.899l5.101,5.101l-1.101,1.1l-5.1-5.1
	l-3.9,3.899c1.101,1.601,2.801,3.601,5.101,5.9L614.6,145.3z M621.7,124.6l-1.7,1.7l6.301,6.3l-3.7,3.7l-1.3-1.3l2.6-2.601
	L612.4,121l-2.6,2.6l-1.3-1.3l3.699-3.7l6.301,6.3l1.699-1.699L621.7,124.6z"/>
<path fill="#222222" d="M632.6,158.4L627.2,153l-2.3,2.3l6.8,6.8l-1.1,1.101l-14.9-14.9l1.101-1.1l6.8,6.8l2.3-2.3l-5.5-5.5
	l1.1-1.101l5.5,5.5l1.4-1.399l-1.1-1.101l3.8-3.8l-2.4-2.4c-1.2,0.9-2.3,1.5-3.3,1.9c-1.1,0.3-2.2,0.4-3.4,0.3l-0.1-1.899
	c1.1,0.1,2,0.1,2.9-0.101c0.899-0.2,1.8-0.7,2.699-1.399l-2.1-2.101l1.1-1.1l2.2,2.2c0.2-0.2,0.5-0.5,0.9-0.9l1.3-1.3l-1.9-1.9
	l1.101-1.1l8.5,8.5l-1.101,1.1l-1.8-1.8l-2.2,2.2l1.801,1.8l-1.101,1.1l-1.8-1.8l-3.3,3.3l1.2,1.2l-1.9,1.9l5.4,5.399L632.6,158.4z
	 M629.7,140.8l2.3,2.3l2.2-2.2l-2.3-2.3l-1.3,1.3C630.2,140.4,629.9,140.7,629.7,140.8z M643.4,147.4l1.3,1.301l-6.3,6.3
	c-1,1-1.7,1.399-2.1,1.5c-0.5,0-1.101-0.4-1.9-1.2c-0.5-0.5-1.2-1.3-2.1-2.3l1.1-1.2c0.8,1,1.5,1.7,2,2.1c0.4,0.4,0.6,0.5,0.8,0.5
	s0.5-0.199,1-0.699L643.4,147.4z M633.301,149.9l6-6l1.3,1.301l-6,6L633.301,149.9z"/>
<path fill="#222222" d="M635.5,167.1L634.6,168l-1.3-1.3l13.199-13.2l5,5c1-0.4,2.101-0.9,3.101-1.5l1.2,1.5c-1,0.6-2,1-2.9,1.399
	l6.4,6.4l-13.2,13.2l-1.3-1.3l0.899-0.9L635.5,167.1z M636.6,166l10.1,10.1l2.7-2.7l-10.1-10.1L636.6,166z M640.4,162.2l10.1,10.1
	l2.7-2.7l-10.1-10.1L640.4,162.2z M654.301,168.6l2.6-2.6l-10.1-10.101L644.2,158.5L654.301,168.6z"/>
<path fill="#222222" d="M649.4,182.9l14.6-14.6l6.601,6.6L664.5,181l-5.3-5.3l-8.5,8.5L649.4,182.9z M653.801,184.4l0.3-1.6
	c2.5,0.8,5.2,1.3,8.1,1.4l-4.399-4.4l1.1-1.1l5.2,5.199l1.2-1.199l1.199,1.199l-1.199,1.2l2.5,2.5L666.7,188.7l-2.5-2.5l-4.1,4.1
	c-0.601,0.6-1,0.8-1.3,0.8c-0.301,0-0.9-0.5-1.7-1.2c-0.5-0.5-1.101-1.1-1.601-1.8l1-1.1c0.601,0.7,1.2,1.3,1.601,1.8
	c0.3,0.3,0.5,0.4,0.5,0.4c0.1,0,0.3-0.101,0.5-0.301l3.1-3.1C659.301,185.7,656.5,185.3,653.801,184.4z M661.801,195
	c-0.5-0.5-1.101-1.101-1.801-2l1.101-1.2c0.899,1,1.399,1.6,1.6,1.8c0.5,0.5,0.8,0.7,1,0.7s0.5-0.2,1-0.7l6.2-6.2L665.5,182
	l6.101-6.101l6.7,6.7L666.1,195c-1,1-1.7,1.399-2.2,1.399C663.5,196.5,662.801,196,661.801,195z M661.801,173.1L660.2,174.7l4,4
	l1.601-1.601L661.801,173.1z M662.7,172.2l4,4l1.5-1.5l-4-4L662.7,172.2z M673.6,184.9l-4.2-4.199l-1.6,1.6l4.199,4.2L673.6,184.9z
	 M674.5,184l1.5-1.5l-4.199-4.2l-1.5,1.5L674.5,184z"/>
<path fill="#222222" d="M689.4,194.9l5.9,5.9l-1.101,1.1l-12.1-12.1l-4.7,4.7c-2.1,2.1-3.899,3.5-5.399,4.399
	c-1.5,0.9-3.2,1.301-4.9,1.4l-0.1-1.9c1.1-0.1,2.199-0.3,3-0.6c0.899-0.3,1.8-0.9,2.899-1.7c-0.899-0.2-1.899-0.5-3.1-1l0.8-1.6
	c1.3,0.6,2.6,1,3.9,1.199c0.699-0.699,1.5-1.399,2.399-2.3l0.2-0.2l-0.8-0.199c0.5-1.7,0.8-3.4,1.1-5.101l1.7,0.4
	c-0.2,1.3-0.5,2.6-0.8,3.7l3.6-3.601l6.101,6.101l1.5-1.5l1.3,1.3L689.4,194.9z M677.9,208.3l5,5l-1.1,1.1L669.4,202l1.1-1.101l2,2
	l6.7-6.699l1.3,1.3l-6.699,6.7l2.699,2.699l8.601-8.6l-4.8-4.8l1.1-1.101l10.9,10.9l-1.101,1.1l-4.8-4.8l-3.3,3.3l4.2,4.2
	L686.2,208.2l-4.199-4.2L677.9,208.3z"/>
<path fill="#222222" d="M620.6,21l1.3,1.3c-2.9,2.9-5.5,4.7-7.6,5.5c-2.101,0.8-4.5,0.7-7-0.3l0.5-1.7c2.1,0.9,4.1,0.9,6,0.2
	C615.7,25.3,617.9,23.7,620.6,21z M618.301,13.3L631.7,26.7l-1.2,1.199c-1.6,0.9-3.3,1.4-5.1,1.5c-1.8,0.101-3.6-0.1-5.3-0.699
	l0.4-1.7c3.1,1.1,6,0.899,8.6-0.5l-12-12L618.301,13.3z"/>
<path fill="#222222" d="M636.5,31.3L647,41.8l-1.199,1.2c-2.7,1.1-5.801,1.8-9.2,1.899c0.1,3.7,0.1,7,0.1,10h-1.8
	c0.1-3.1,0.1-6.399,0-10c-3.8-0.1-7.6-0.8-11.6-2.1l0.5-1.7c3.899,1.2,7.6,1.9,11.1,1.9c3.5,0.1,6.7-0.4,9.6-1.5l-9.1-9.101
	L636.5,31.3z"/>
<path fill="#222222" d="M641.7,54.9c0.9-0.1,3.601-0.399,8-1c2.3-0.3,3.7-0.5,4.3-0.5c0.601,0,1.101,0.2,1.5,0.601
	c0.5,0.5,0.7,1,0.801,1.6c0.1,0.601,0.1,2,0,4.3L655.9,72H654l0.301-12.101c0.1-1.699,0.1-2.8,0.1-3.3s-0.1-0.899-0.3-1.1
	c-0.101-0.101-0.5-0.2-1-0.101c-0.5,0-1.5,0.2-2.9,0.4l-8.1,1L641.7,54.9z M664,61.9c-0.6,0.601-1.399,1-2.3,1
	c-0.899,0-1.7-0.3-2.3-1c-0.6-0.699-1-1.399-1-2.3c0-0.899,0.3-1.7,1-2.3c0.6-0.6,1.4-1,2.3-1c0.9,0,1.7,0.3,2.3,1
	c0.601,0.6,1,1.4,1,2.3C665,60.5,664.7,61.3,664,61.9z M661.7,61.6c0.5,0,1-0.2,1.4-0.6c0.4-0.4,0.6-0.9,0.6-1.4s-0.2-1-0.6-1.399
	c-0.4-0.4-0.9-0.601-1.4-0.601s-1,0.2-1.399,0.601C659.9,58.6,659.7,59.1,659.7,59.6s0.2,1,0.601,1.4
	C660.7,61.4,661.2,61.6,661.7,61.6z"/>
<path fill="#222222" d="M672,66.1l1.301,1.3L670,70.7c-2.199,2.199-4.1,3.8-5.6,4.8s-2.8,1.5-4,1.7c-1.2,0.1-2.5-0.101-4-0.601
	l0.4-1.7c1.399,0.5,2.5,0.601,3.5,0.5c1-0.1,2.1-0.6,3.399-1.5c1.301-0.899,3-2.399,5-4.399L672,66.1z M676.301,70.5l1.3,1.3
	l-11.5,11.5c1.6,1.2,3.399,1.8,5.3,1.6c1.9-0.199,3.8-1.1,5.8-2.699l1.101,1.3c-5.2,4.399-10.2,4.399-15.101,0L676.301,70.5z"/>
<path fill="#222222" d="M691.801,83.8L693,85c-1.3,1.3-2.3,2.3-3.199,3.1l6.699,6.7l-0.6,0.6c-1.6,1.5-2.9,2.801-4,3.801
	s-2.1,1.8-2.9,2.5c-0.8,0.699-1.6,1.199-2.1,1.5c-0.5,0.3-1,0.5-1.5,0.5s-0.9-0.101-1.2-0.2c-0.3-0.2-0.7-0.5-1.1-0.8
	c-1-1-2-2.101-3.1-3.4l1.3-1.1c0.899,1.1,1.8,2.1,2.6,3c0.5,0.5,1,0.699,1.4,0.6c0.5-0.1,1.399-0.6,2.6-1.6
	c1.3-1,3.2-2.801,5.8-5.301l0.101-0.1l-5.4-5.4c-2.6,2.2-5.1,3.601-7.3,4.4c-2.2,0.7-4.7,0.9-7.4,0.5l0.101-1.7
	c1.6,0.2,3.1,0.2,4.3,0.101c1.3-0.101,2.6-0.601,4.1-1.301c1.5-0.699,3.101-1.8,4.8-3.199l-4.3-4.301l1.2-1.199l4.4,4.399
	C689.4,86.1,690.4,85.1,691.801,83.8z M696.9,89.2l1.6,0.399l-1,4.4l-1.5-0.5C696.4,92,696.7,90.6,696.9,89.2z M699.7,91.2
	l1.601,0.399c-0.301,1.601-0.601,3.101-1,4.5l-1.5-0.5C699.1,94.1,699.5,92.6,699.7,91.2z"/>
<path fill="#222222" d="M696.4,103.9l1.3-1.3l13.8,13.8l-1.3,1.301L696.4,103.9z"/>
<path fill="#222222" d="M729,122.7l5.9,5.899l-1.1,1.101L721.7,117.6l-4.699,4.7c-2.101,2.1-3.9,3.5-5.4,4.4
	c-1.5,0.899-3.2,1.3-4.9,1.399l-0.1-1.899c1.1-0.101,2.2-0.301,3-0.601s1.8-0.899,2.9-1.7c-0.9-0.199-1.9-0.5-3.101-1l0.8-1.6
	c1.301,0.6,2.601,1,3.9,1.2c0.7-0.7,1.5-1.4,2.4-2.3l0.199-0.2l-0.8-0.2c0.5-1.7,0.8-3.4,1.101-5.1l1.699,0.399
	c-0.199,1.3-0.5,2.601-0.8,3.7l3.601-3.6l6.1,6.1l1.5-1.5l1.3,1.3L729,122.7z M717.5,136.2l5,5l-1.1,1.1L709,129.9l1.101-1.1l2,2
	l6.7-6.7l1.3,1.3l-6.7,6.7l2.7,2.7l8.6-8.6l-4.8-4.801l1.1-1.1l10.9,10.9l-1.1,1.1L726,127.5l-3.3,3.3l4.2,4.2l-1.1,1.1l-4.2-4.2
	L717.5,136.2z"/>
<path fill="#222222" d="M735,136.1l-10.5,10.5l-1.199-1.2l8-8c-0.9,0.4-1.9,0.7-3,0.9l0.8-1.9c3.5-0.8,7.1-2.5,10.6-5l1.101,1.301
	C738.9,134.1,736.9,135.2,735,136.1z M732.6,145.4l1.1-1.1l4.3,4.3l0.2-0.2l2-2l-2.3-2.3c-1,0.2-2,0.4-2.9,0.4l-0.3-1.601
	c1.9-0.1,3.8-0.5,5.601-1.199l-2-2l1.1-1.101l6.6,6.601l2.601-2.101l-6.2-6.2l1.1-1.1l7.601,7.6l-3.8,3.101l1.8,1.8L748,149.4
	l-6.5-6.5c-0.6,0.301-1.3,0.5-2,0.801l6.601,6.6L745,151.4l-3.6-3.6l-2,2l-0.2,0.2l4.101,4.1L742.2,155.2l-3.899-3.9
	c-1.101,2.1-0.9,4.6,0.699,7.5l-1.6,0.7c-0.7-1.3-1.2-2.601-1.4-4c-0.199-1.4-0.1-2.7,0.301-3.9c-1.301,0.3-2.801,0.3-4.4-0.1
	c-1.6-0.4-3.2-1.101-4.9-2.2l0.8-1.6c3.601,2.399,6.5,3,8.7,1.899L732.6,145.4z M728,145.9l10.5-10.5l1.2,1.2l-10.5,10.5L728,145.9z
	"/>
<path fill="#222222" d="M756.801,168.6l3.3,3.3l-1.2,1.2l-3.3-3.3l-3.9,3.9l-1.3-1.301l3.9-3.899l-3.4-3.4l1.2-1.2l3.399,3.4
	l2.9-2.9l-3-3l1.1-1.1l3,3l2.7-2.7l-3.1-3.1l-1,1l-0.8-0.8l-2.9,2.899l-4.1-4.1c-0.7,0.399-1.3,0.8-2,1.1l4.7,4.601l-6.101,6.1
	l-1.3-1.3l0.8-0.8l-3.399-3.4l-0.801,0.8l-1.199-1.2l4-4c-1.2,0.301-2.301,0.5-3.101,0.601l0.601-1.8c2.3-0.2,4.399-0.9,6.5-2.101
	l-1.5-1.5l1.1-1.1l1.7,1.7c0.8-0.5,1.5-1.101,2.2-1.601l-2.5-2.5l1.1-1.1l2.5,2.5c0.6-0.5,1.2-1.101,1.8-1.7l-2-2l1-1l6.7,6.7
	l-2.8,2.8l0.7,0.7l1.1-1.101l1.9,1.9c0.5-1.2,0.899-2.3,1.199-3.3l1.5,0.899c-0.3,1-0.8,2.3-1.399,3.7l1.399,1.4
	c1.2-0.4,2.4-0.9,3.601-1.4l1,1.5c-0.9,0.4-2,0.8-3.3,1.3l1.699,1.7l-1.1,1.1l-3.1-3.1l-2.7,2.7l2.899,2.899l-1.1,1.101l-2.9-2.9
	L756.801,168.6z M743.801,161.8l3.399,3.4l3.2-3.2l-3.4-3.4L743.801,161.8z M751.4,155.7l2.6,2.6l1.9-1.9l-2.3-2.3
	C752.9,154.6,752.2,155.1,751.4,155.7z M758.7,153.6l-2.2-2.2c-0.6,0.601-1.199,1.2-1.8,1.7l2.3,2.3L758.7,153.6z"/>
<path fill="#222222" d="M764.301,181.2c0.8-1.9,1.899-3.601,3.5-5.2c1.6-1.601,3.3-2.7,5.199-3.5c1.9-0.8,3.9-1.101,6-1.101
	l1.301,1.301c-4.301-0.101-8,1.399-11.101,4.6c-3.1,3.1-4.6,6.8-4.6,11.1l-1.3-1.3C763.2,185.1,763.5,183.1,764.301,181.2z"/>
<path fill="#222222" d="M768.301,187.4L785.2,179.2l1.5,1.5l-8.2,16.899L777.1,196.2l2.5-4.9l-5-5l-4.9,2.5L768.301,187.4z
	 M776,185.6l4.301,4.3l4.399-8.699l0,0L776,185.6z"/>
<path fill="#222222" d="M796.2,190.1c1.2,1.2,2.101,2.601,2.7,4.2l-1.3,1.3c-0.5-1.7-1.3-3.1-2.4-4.2
	c-0.7-0.699-1.399-1.1-2.1-1.199c-0.7-0.101-1.4,0.199-2.1,0.8c-1.101,1.1-1.2,2.6-0.2,4.6c0.899,1.9,1.399,3.4,1.3,4.601
	c0,1.199-0.5,2.199-1.4,3.1c-1.1,1.1-2.3,1.6-3.5,1.5s-2.5-0.8-3.8-2.1c-1.2-1.2-2-2.5-2.4-4l1.301-1.301c0.3,1.601,1,3,2.1,4.101
	c1.8,1.8,3.4,1.899,4.9,0.399c0.6-0.6,0.899-1.3,1-2.1c0-0.8-0.301-1.8-0.801-3c-1.5-3.1-1.5-5.6,0.2-7.2
	c0.9-0.899,2-1.399,3.101-1.3C793.9,188.4,795.1,189,796.2,190.1z"/>
<path fill="#222222" d="M802.801,202.4c-0.801,1.9-1.9,3.601-3.5,5.2c-1.601,1.601-3.301,2.7-5.2,3.5c-1.9,0.8-3.9,1.101-6,1.101
	l-1.3-1.301c4.3,0.101,8-1.399,11.1-4.6c3.1-3.1,4.6-6.8,4.6-11.1l1.301,1.3C803.9,198.5,803.6,200.5,802.801,202.4z"/>
<path fill="#222222" d="M830.7,118.3l-6.899-6.9l-3.5,3.5l5.3,5.301l-8,8l-1.3-1.301l1.1-1.1l-9.2-9.2l-1.1,1.101l-1.3-1.301l8-8
	l5.3,5.301l3.5-3.5l-6.9-6.9l1.2-1.2l6.9,6.9l2.5-2.5l1.399,1.399l-2.5,2.5l6.9,6.9L830.7,118.3z M809.2,115.4l9.2,9.2l4.7-4.7
	l-9.2-9.199L809.2,115.4z"/>
<path fill="#222222" d="M822.1,130.7c3,1.5,5.7,2.3,8,2.6l-0.2,1.6c-2.5-0.199-5.3-1-8.4-2.6L822.1,130.7z M840.5,142.9
	L824.801,127.2l1.1-1.101l1.2,1.2l8.2-8.2l4.1,4.101l1.8-1.801l1.2,1.2l-1.8,1.8l2.8,2.801l1.8-1.801l1.2,1.2l-1.8,1.8l4.1,4.101
	l-8.2,8.2l1.2,1.199L840.5,142.9z M831.5,125.5l-3.1,3.1l2.8,2.8l3.101-3.1L831.5,125.5z M835.2,135.4l3.101-3.1l-2.801-2.8
	l-3.1,3.1L835.2,135.4z M838.301,124.3l-2.801-2.8L832.6,124.4l2.8,2.801L838.301,124.3z M832.7,138l1.5-0.5
	c1.3,3.1,2.2,5.899,2.601,8.3l-1.7,0.4C834.801,143.8,834,141,832.7,138z M836.4,136.6l2.8,2.8l3.101-3.1l-2.801-2.8L836.4,136.6z
	 M842.301,128.3l-2.801-2.8L836.6,128.4l2.8,2.801L842.301,128.3z M843.5,129.5L840.6,132.4l2.8,2.801l2.9-2.9L843.5,129.5z"/>
<path fill="#222222" d="M851.4,161.6c-0.9-0.899-2-2.1-3.3-3.6l1.2-1.2c1.2,1.4,2.2,2.5,2.8,3.1c0.2,0.2,0.6,0.2,1.2-0.1
	c0.6-0.3,1.7-1.2,3.399-2.7c1.7-1.5,4.101-3.7,7.301-6.7l-5-5c-2.301,0.9-4.4,1.5-6.4,1.7V146.2l-7,7l-4.5-4.5l-1.3,1.3l-1.3-1.3
	L851.2,136l1.9,1.899c1.2-0.5,2.3-1,3.3-1.5l1.101,1.4c-1,0.5-2,1-3,1.4l2.5,2.5l-3.5,3.5c2.899-0.5,5.699-1.601,8.5-3.301l1.1,1.4
	c-0.8,0.5-1.7,1-2.5,1.4l5.9,5.899c-2.101,2-3.9,3.7-5.4,5.101c-1.5,1.399-2.7,2.5-3.8,3.399c-1.101,0.9-1.9,1.601-2.5,2.101
	c-0.601,0.5-1.2,0.8-1.601,0.899c-0.399,0.101-0.8,0.2-1,0.101C851.9,162,851.6,161.8,851.4,161.6z M846.301,143.4L842.2,147.5
	l3.2,3.2l4.1-4.101L846.301,143.4z M847.4,142.3l3.2,3.2l3.9-3.9l-3.2-3.2L847.4,142.3z M855.6,147.6l1.7,0.5
	c-0.5,2.4-1.2,4.7-2.101,7l-1.6-0.6C854.4,152.2,855.1,149.9,855.6,147.6z"/>
<path fill="#222222" d="M858.4,167.1l-0.9,0.9l-1.3-1.3l13.2-13.2l5,5c1-0.4,2.1-0.9,3.1-1.5l1.2,1.5c-1,0.6-2,1-2.899,1.399
	l6.399,6.4L869,179.5l-1.3-1.3l0.9-0.9L858.4,167.1z M859.5,166l10.101,10.1l2.7-2.7L862.2,163.3L859.5,166z M863.301,162.2
	l10.1,10.1l2.7-2.7L866,159.6L863.301,162.2z M877.1,168.6l2.6-2.6L869.6,155.9L867,158.5L877.1,168.6z"/>
<path fill="#222222" d="M872.301,182.9l14.6-14.6l6.6,6.6L887.4,181l-5.3-5.3l-8.5,8.5L872.301,182.9z M876.7,184.4l0.3-1.6
	c2.5,0.8,5.2,1.3,8.101,1.4l-4.4-4.4l1.101-1.1L887,183.9l1.2-1.199l1.2,1.199l-1.2,1.2l2.5,2.5l-1.1,1.101l-2.5-2.5L883,190.3
	c-0.6,0.6-1,0.8-1.3,0.8s-0.899-0.5-1.7-1.2c-0.5-0.5-1.1-1.1-1.6-1.8l1-1.1c0.6,0.7,1.2,1.3,1.6,1.8c0.301,0.2,0.5,0.4,0.5,0.4
	c0.101,0,0.301-0.101,0.5-0.301l3.101-3.1C882.2,185.7,879.301,185.2,876.7,184.4z M884.7,195c-0.5-0.5-1.1-1.101-1.8-2l1.1-1.2
	c0.9,1,1.4,1.6,1.601,1.8c0.5,0.5,0.8,0.7,1,0.7s0.5-0.2,1-0.7l6.2-6.2L888.4,182l6.1-6.101l6.7,6.7L889,195
	c-1,1-1.699,1.399-2.199,1.399C886.4,196.5,885.7,196,884.7,195z M884.7,173.1l-1.6,1.601l4,4l1.6-1.601L884.7,173.1z M885.6,172.2
	l4,4l1.5-1.5l-4-4L885.6,172.2z M896.5,184.9l-4.199-4.199l-1.601,1.6l4.2,4.2L896.5,184.9z M897.4,184l1.5-1.5l-4.2-4.2l-1.5,1.5
	L897.4,184z"/>
<path fill="#222222" d="M912.301,194.9l5.899,5.9l-1.1,1.1L905,189.8l-4.699,4.7c-2.101,2.1-3.9,3.5-5.4,4.399
	c-1.5,0.801-3.2,1.301-4.9,1.4l-0.1-1.9c1.1-0.1,2.2-0.3,3-0.6c0.9-0.3,1.8-0.9,2.9-1.7c-0.9-0.2-1.9-0.5-3.101-1l0.8-1.6
	c1.301,0.6,2.601,1,3.9,1.2c0.7-0.7,1.5-1.4,2.4-2.301l0.2-0.199L899.2,192c0.5-1.7,0.801-3.4,1.101-5.101l1.7,0.4
	c-0.2,1.3-0.5,2.6-0.801,3.7l3.601-3.601l6.1,6.101l1.5-1.5l1.3,1.3L912.301,194.9z M900.801,208.3l5,5l-1.101,1.1L892.301,202
	l1.1-1.101l2,2l6.7-6.699l1.3,1.3l-6.7,6.7l2.7,2.699l8.6-8.6l-4.8-4.8l1.101-1.101l10.899,10.9l-1.1,1.1l-4.8-4.8L906,202.9
	l4.2,4.2l-1.1,1.101l-4.2-4.2L900.801,208.3z"/>
</svg>
